<svg width="102" height="103" viewBox="0 0 102 103" fill="none" xmlns="http://www.w3.org/2000/svg">
<g opacity="0.3">
<path d="M78.2078 14.677L77.8379 14.3622L77.4616 14.0539L77.0789 13.7517L76.6902 13.4564L76.2955 13.1675L75.8953 12.8856L75.4895 12.6108L75.0788 12.3431L74.6629 12.0826L74.2422 11.8298L73.8171 11.5847L73.3878 11.3471L72.9545 11.1176L72.5175 10.896L72.0769 10.6827L71.633 10.4776L71.1862 10.2808L70.7366 10.0927L70.2842 9.913L69.8299 9.74226L69.3735 9.58028L68.9153 9.42707L68.4554 9.28282L67.9945 9.14777L67.5327 9.02191L67.0701 8.90545L66.607 8.79817L66.1437 8.70031L65.6807 8.61184L65.2178 8.53298L64.7556 8.46354L64.2942 8.40371L63.834 8.35348L63.3749 8.3131L62.9179 8.28232L62.4625 8.26138L62.0095 8.25027L61.5588 8.24878L61.1107 8.25711L60.6658 8.27527L60.2239 8.30327L59.7856 8.34088L59.3509 8.38853L58.9204 8.4458L58.494 8.5129L58.072 8.58961L57.6549 8.67594L57.2427 8.77189L56.8356 8.87767L56.4343 8.99285L56.0385 9.11764L55.6485 9.25184L55.265 9.39544L54.8878 9.54823L54.5171 9.7102L54.1534 9.88137L53.7967 10.0617L53.4475 10.2508L53.1056 10.4491L52.7716 10.656L52.4455 10.8714L52.1278 11.0956L51.8181 11.3281L51.5171 11.5689L51.2247 11.8178L50.9414 12.0749L50.6672 12.3397L50.4022 12.6123L50.1469 12.8927L49.9011 13.1803L49.665 13.4752L49.4389 13.7774L49.2229 14.0864L49.0171 14.4022L48.8218 14.7247L48.6371 15.0535L48.463 15.3886L48.2995 15.7296L48.1472 16.0767L48.0057 16.4291L47.8753 16.787L47.7561 17.1503L47.6482 17.5185L47.5518 17.8916L47.4668 18.2689L47.3935 18.651L47.3315 19.0369L47.2813 19.4267L47.2426 19.8203L47.2159 20.2174L47.2009 20.6174L47.1977 21.0204L47.2063 21.4262L47.2268 21.8344L47.2591 22.2446L47.3031 22.6571L47.3591 23.071L47.4268 23.4864L47.5063 23.9029L47.5978 24.3204L47.7008 24.7384L47.8153 25.1568L47.9416 25.5754L48.0792 25.9941L48.2284 26.412L48.3891 26.8294L48.5611 27.2459L48.744 27.661L48.9382 28.075L49.1434 28.487L49.3594 28.897L49.5862 29.305L49.8236 29.7101L50.0714 30.1127L50.3296 30.5123L50.598 30.9085L50.8762 31.301L51.1645 31.69L51.4621 32.0748L51.7694 32.4554L52.0861 32.8313L52.4116 33.2025L52.7462 33.5687L53.0894 33.9297L53.4411 34.285L53.801 34.6346L54.1687 34.9785L54.5444 35.3159L54.9278 35.6471L55.3182 35.9715L55.7159 36.2892L56.1202 36.5999L56.5311 36.9032L56.9482 37.1991L57.3713 37.4876L57.8002 37.7682L58.2346 38.0406L58.6742 38.3052L59.1187 38.5612L59.5676 38.8086L60.0211 39.0475L60.4786 39.2777L60.9397 39.4989L61.4043 39.7108L61.8718 39.9136L62.3426 40.107L62.8155 40.291L63.291 40.4654L63.7681 40.6299L64.247 40.7848L64.7272 40.9297L65.2084 41.0648L65.6903 41.1898L66.1726 41.3043L66.6549 41.4088L67.137 41.5031L67.6184 41.587L68.0992 41.6605L68.5787 41.7238L69.0568 41.7766L69.5331 41.8187L70.0075 41.8505L70.4793 41.8717L70.9486 41.8826L71.4148 41.8828L71.8779 41.8725L72.3373 41.8518L72.7929 41.8208L73.2445 41.7794L73.6917 41.7274L74.134 41.665L74.5715 41.5926L75.004 41.5099L75.4307 41.4169L75.8519 41.3139L76.2669 41.2011L76.6759 41.0782L77.0783 40.9455L77.4738 40.803L77.8625 40.6509L78.244 40.4893L78.6179 40.3181L78.9842 40.138L79.3427 39.9485L79.6932 39.7499L80.0353 39.5427L80.3689 39.3264L80.6939 39.1016L81.01 38.8683L81.317 38.6268L81.6147 38.3772L81.9032 38.1195L82.182 37.8541L82.4513 37.581L82.7105 37.3004L82.9599 37.0128L83.1992 36.7179L83.4281 36.4159L83.6467 36.1076L83.8548 35.7926L84.0523 35.4714L84.239 35.1441L84.4149 34.8107L84.5799 34.4718L84.7339 34.1275L84.8771 33.7779L85.009 33.4232L85.1299 33.0638L85.2393 32.6997L85.3376 32.3313L85.4244 31.9588L85.5 31.5823L85.5641 31.2021L85.6171 30.8185L85.6586 30.4315L85.6885 30.0418L85.7071 29.6492L85.7141 29.2541L85.7099 28.8569L85.6943 28.4575L85.6673 28.0562L85.6289 27.6534L85.5795 27.2493L85.5186 26.8441L85.4466 26.4379L85.3635 26.0312L85.2692 25.6242L85.1639 25.2169L85.0479 24.8098L84.9209 24.4029L84.7831 23.9965L84.6348 23.5911L84.4758 23.1866L84.3064 22.7834L84.1266 22.3816L83.9367 21.9816L83.7364 21.5835L83.5264 21.1877L83.3065 20.7941L83.0768 20.4033L82.8374 20.015L82.5887 19.6301L82.3308 19.2483L82.0637 18.87L81.7874 18.4954L81.5025 18.1247L81.2089 17.7582L80.9069 17.3958L80.5967 17.0381L80.2781 16.6851L79.9518 16.337L79.6176 15.994L79.2759 15.6564L78.9269 15.3241L78.5709 14.9975L78.2078 14.677Z" fill="#0E0C15"/>
<path d="M73.6498 17.4786L73.859 17.6435L74.0736 17.8029L74.283 17.9643L74.477 18.135L74.6492 18.3207L74.8071 18.5171L74.9621 18.7173L75.1253 18.915L75.3038 19.1052L75.489 19.2915L75.6687 19.4787L75.8301 19.6719L75.9651 19.8749L76.0827 20.0849L76.1961 20.2984L76.319 20.5108L76.4598 20.7198L76.609 20.926L76.7519 21.1322L76.8746 21.3408L76.9671 21.5534L77.0398 21.7697L77.1077 21.9881L77.1855 22.2075L77.2834 22.4272L77.3904 22.646L77.4913 22.8638L77.5702 23.0798L77.6167 23.2941L77.6418 23.5083L77.661 23.7234L77.6907 23.9418L77.7416 24.1639L77.8024 24.3872L77.8569 24.6083L77.889 24.8239L77.8875 25.0319L77.8636 25.2355L77.8334 25.4396L77.8138 25.6482L77.8153 25.8644L77.8272 26.0839L77.8332 26.3001L77.817 26.5072L77.7672 26.7008L77.695 26.8863L77.6163 27.0709L77.5475 27.2619L77.4994 27.4641L77.4616 27.6714L77.4184 27.8746L77.3541 28.065L77.2578 28.2368L77.1396 28.3969L77.0152 28.5548L76.8996 28.7208L76.8035 28.9012L76.7171 29.0881L76.6259 29.2706L76.5156 29.4371L76.3761 29.5803L76.2164 29.7083L76.0506 29.8333L75.8925 29.9677L75.7514 30.1192L75.6194 30.2786L75.4835 30.4331L75.3311 30.569L75.1533 30.6778L74.9582 30.7686L74.7574 30.8556L74.5627 30.9526L74.3821 31.0693L74.209 31.1951L74.0334 31.3154L73.8445 31.4152L73.6353 31.4851L73.4122 31.5349L73.1837 31.58L72.9598 31.636L72.7463 31.7127L72.5388 31.7997L72.3298 31.8811L72.1117 31.9409L71.8794 31.9687L71.6366 31.9751L71.3896 31.9764L71.1449 31.9886L70.9069 32.0225L70.6729 32.0672L70.4387 32.1063L70.1998 32.1236L69.953 32.108L69.7002 32.0706L69.4446 32.0275L69.1888 31.9954L68.9354 31.9847L68.6841 31.9851L68.4334 31.9804L68.183 31.9542L67.9316 31.8958L67.6791 31.8157L67.4246 31.7298L67.1679 31.6541L66.9092 31.5994L66.6502 31.5556L66.3933 31.5071L66.1414 31.4383L65.8954 31.3392L65.6529 31.2193L65.4099 31.0936L65.1624 30.9776L64.9086 30.881L64.6522 30.7945L64.3991 30.7041L64.1555 30.5955L63.9248 30.4594L63.7021 30.3043L63.4803 30.144L63.2523 29.9918L63.0131 29.857L62.7696 29.7316L62.5304 29.6029L62.3048 29.4589L62.0986 29.2911L61.9047 29.1072L61.7128 28.9183L61.513 28.7362L61.2983 28.5687L61.0771 28.409L60.8613 28.2473L60.6628 28.0735L60.4893 27.881L60.3318 27.6752L60.1777 27.4654L60.014 27.2604L59.8322 27.0668L59.6422 26.8799L59.458 26.6918L59.2943 26.4952L59.1601 26.2854L59.0456 26.0659L58.9353 25.8435L58.8141 25.624L58.6722 25.412L58.5207 25.205L58.3754 24.9981L58.253 24.7868L58.1634 24.5679L58.0959 24.3436L58.0335 24.1171L57.9598 23.8916L57.8632 23.67L57.7559 23.4512L57.6553 23.2339L57.5784 23.0163L57.5369 22.7971L57.519 22.5766L57.507 22.3548L57.4831 22.1323L57.4356 21.9096L57.3764 21.688L57.3236 21.4688L57.2954 21.2534L57.3033 21.0425L57.3356 20.8341L57.3741 20.6258L57.4006 20.4149L57.4036 20.1999L57.3946 19.9843L57.3916 19.7719L57.4125 19.567L57.4694 19.3725L57.5501 19.1842L57.6373 18.9973L57.7134 18.806L57.7662 18.6073L57.8074 18.4058L57.854 18.2083L57.923 18.0222L58.026 17.8512L58.1521 17.6903L58.2844 17.5316L58.4064 17.3672L58.5069 17.192L58.5962 17.0125L58.6902 16.8379L58.8043 16.6772L58.9494 16.5364L59.1157 16.4086L59.2877 16.284L59.4507 16.1524L59.5945 16.0075L59.7283 15.8569L59.8657 15.7113L60.0202 15.5823L60.2016 15.4767L60.4012 15.3867L60.6064 15.3006L60.804 15.2068L60.9857 15.0974L61.1581 14.9812L61.3333 14.8703L61.5222 14.7775L61.7327 14.7108L61.9582 14.6617L62.1883 14.617L62.4131 14.564L62.6251 14.4944L62.8298 14.4166L63.036 14.3446L63.2518 14.2914L63.4835 14.2659L63.7262 14.2591L63.9726 14.2574L64.2156 14.2469L64.45 14.2191L64.6791 14.183L64.9082 14.152L65.1428 14.1403L65.3868 14.1567L65.6375 14.1922L65.8911 14.233L66.1433 14.2655L66.3912 14.2805L66.6358 14.2871L66.8792 14.2984L67.1237 14.3285L67.3707 14.386L67.6203 14.4621L67.8716 14.5437L68.1236 14.6177L68.3757 14.6749L68.6266 14.7237L68.8751 14.7771L69.1202 14.8476L69.3615 14.9438L69.6006 15.0577L69.8401 15.1769L70.0827 15.2893L70.3295 15.3865L70.5774 15.4759L70.8216 15.569L71.0584 15.6774L71.2847 15.8088L71.5046 15.956L71.7236 16.1084L71.9478 16.255L72.1801 16.3885L72.4157 16.5152L72.6469 16.6447L72.8664 16.7871L73.0694 16.9486L73.262 17.1236L73.4526 17.3031L73.6498 17.4786Z" fill="#0E0C15"/>
<path d="M81.5596 13.0814L81.0307 12.6323L80.4926 12.1918L79.9456 11.7608L79.3898 11.339L78.8261 10.9266L78.254 10.5242L77.6745 10.1316L77.0877 9.74957L76.4936 9.37775L75.8929 9.01661L75.2859 8.66637L74.6728 8.32703L74.0539 7.99902L73.4297 7.68233L72.8004 7.37739L72.1666 7.08399L71.5283 6.80257L70.8859 6.53331L70.24 6.27603L69.5908 6.03136L68.9386 5.79907L68.2838 5.57962L67.6268 5.37276L66.9679 5.17873L66.3076 4.99773L65.646 4.82999L64.9838 4.67549L64.321 4.53424L63.6581 4.40624L62.9957 4.29192L62.3339 4.19105L61.6731 4.10387L61.0137 4.03057L60.3562 3.97095L59.7008 3.92501L59.0477 3.89317L58.3977 3.875L57.7508 3.87073L57.1076 3.88056L56.4685 3.90429L55.8336 3.9421L55.2034 3.99382L54.5784 4.05942L53.9587 4.13913L53.345 4.23272L52.7372 4.33999L52.1359 4.46138L51.5416 4.59643L50.9544 4.74537L50.3749 4.90799L49.8033 5.08428L49.2398 5.27425L48.6848 5.47747L48.139 5.69415L47.6023 5.92429L47.0751 6.16747L46.558 6.42369L46.0509 6.69294L45.5545 6.97522L45.069 7.26991L44.5946 7.57741L44.1315 7.89709L43.6802 8.22916L43.241 8.57321L42.8143 8.92921L42.4 9.29676L41.9989 9.67606L41.6106 10.0667L41.236 10.4682L40.8749 10.8808L40.5276 11.3042L40.1947 11.7377L39.8761 12.1818L39.5722 12.6357L39.2831 13.0994L39.0089 13.5725L38.7501 14.0548L38.5067 14.5461L38.2789 15.0459L38.067 15.5543L37.871 16.0705L37.6911 16.5947L37.5276 17.1264L37.3804 17.6653L37.2498 18.2109L37.1357 18.763L37.0385 19.3216L36.9581 19.8858L36.8947 20.4557L36.8483 21.0307L36.819 21.6105L36.807 22.1949L36.812 22.7834L36.8344 23.3758L36.8739 23.9713L36.9306 24.5701L37.0047 25.1714L37.0962 25.7751L37.2047 26.3807L37.3304 26.9878L37.4733 27.5961L37.6334 28.2052L37.8103 28.8146L38.0041 29.4238L38.2151 30.0328L38.4424 30.641L38.6867 31.2479L38.9474 31.8533L39.2243 32.4567L39.5175 33.0578L39.8265 33.656L40.1515 34.2511L40.4924 34.8428L40.8484 35.4302L41.2198 36.0136L41.6063 36.5921L42.0076 37.1654L42.4233 37.7334L42.8534 38.2956L43.2975 38.8514L43.7552 39.4006L44.2266 39.943L44.711 40.4778L45.2083 41.005L45.7184 41.5243L46.2404 42.035L46.7742 42.5371L47.3198 43.0301L47.8764 43.5137L48.444 43.9875L49.022 44.4512L49.6099 44.9046L50.2078 45.3474L50.8147 45.779L51.4307 46.1996L52.0551 46.6088L52.6874 47.0058L53.3277 47.3909L53.9751 47.7638L54.6293 48.1241L55.2898 48.4713L55.9563 48.8058L56.6283 49.1269L57.3053 49.4347L57.987 49.7287L58.6729 50.0088L59.3623 50.2749L60.0551 50.5268L60.7506 50.7645L61.4483 50.9875L62.1482 51.1961L62.8491 51.3897L63.551 51.5686L64.2537 51.7323L64.9561 51.881L65.658 52.0145L66.3591 52.1329L67.0588 52.2359L67.7567 52.3237L68.4525 52.396L69.1452 52.453L69.8348 52.4943L70.521 52.5203L71.2029 52.531L71.8803 52.5261L72.553 52.5058L73.2201 52.4703L73.8815 52.4195L74.5367 52.3534L75.1852 52.272L75.8265 52.1757L76.4607 52.0641L77.0868 51.9378L77.705 51.7966L78.3145 51.6408L78.9149 51.4703L79.506 51.2854L80.0875 51.0863L80.6589 50.873L81.22 50.6456L81.7703 50.4046L82.3096 50.1499L82.8377 49.8819L83.3539 49.6007L83.8582 49.3062L84.3504 48.9991L84.8299 48.6793L85.2966 48.3472L85.7503 48.0029L86.1907 47.6469L86.6176 47.2792L87.0307 46.8999L87.4297 46.5097L87.8145 46.1086L88.1848 45.6968L88.5404 45.2747L88.8815 44.8424L89.2073 44.4007L89.5183 43.9494L89.8138 43.4889L90.094 43.0197L90.3585 42.5419L90.6072 42.0557L90.8404 41.5614L91.0575 41.0599L91.2586 40.5509L91.4436 40.0348L91.6126 39.5124L91.7652 38.9833L91.9016 38.4484L92.0217 37.9076L92.1253 37.3616L92.2127 36.8105L92.2836 36.2549L92.3383 35.6948L92.3766 35.1309L92.3984 34.5631L92.4039 33.9921L92.393 33.4179L92.3659 32.8412L92.3225 32.2623L92.2629 31.6813L92.1875 31.0987L92.0958 30.5147L91.9883 29.9298L91.8648 29.3443L91.7255 28.7586L91.5708 28.1727L91.4002 27.5874L91.2146 27.0027L91.0137 26.4191L90.7976 25.8368L90.5664 25.2562L90.3204 24.6775L90.0598 24.1014L89.7847 23.5279L89.4954 22.9571L89.1917 22.39L88.8744 21.8263L88.5432 21.2664L88.1985 20.7108L87.8404 20.1597L87.4692 19.6135L87.0852 19.0725L86.6884 18.5367L86.2791 18.0068L85.858 17.4826L85.4246 16.9648L84.9797 16.4537L84.5233 15.9494L84.0555 15.4521L83.577 14.9621L83.0879 14.48L82.5883 14.0056L82.0788 13.5394L81.5596 13.0814Z" fill="#0E0C15"/>
<path d="M83.6132 13.0248L82.951 12.4626L82.2772 11.9117L81.5926 11.3723L80.897 10.8445L80.1914 10.3289L79.4758 9.82521L78.7505 9.33437L78.0163 8.85613L77.273 8.39114L76.5215 7.93918L75.7621 7.50112L74.9951 7.07652L74.2209 6.66602L73.4399 6.26983L72.6526 5.88797L71.8594 5.52064L71.0606 5.16826L70.2569 4.83105L69.4486 4.50903L68.6359 4.20238L67.8194 3.91112L66.9997 3.63589L66.1769 3.37625L65.3519 3.13286L64.5247 2.90571L63.6958 2.69501L62.8658 2.50055L62.0352 2.32297L61.2044 2.16185L60.3736 2.01761L59.5436 1.89025L58.7145 1.77999L57.8871 1.68682L57.0616 1.61095L56.2386 1.55219L55.4185 1.51074L54.6018 1.4868L53.7889 1.48018L52.9801 1.49086L52.1762 1.51907L51.3772 1.5648L50.584 1.62805L49.797 1.70883L49.0163 1.80691L48.2426 1.92273L47.4763 2.05586L46.7177 2.2063L45.9676 2.37405L45.2261 2.55932L44.4938 2.76168L43.7711 2.98136L43.0586 3.21812L42.3563 3.47177L41.665 3.7423L40.985 4.02972L40.3166 4.3338L39.6605 4.65433L39.0169 4.99132L38.3863 5.34456L37.769 5.71381L37.1655 6.0991L36.5759 6.49998L36.0009 6.91646L35.4408 7.34833L34.8961 7.79537L34.3668 8.25716L33.8537 8.7339L33.3569 9.22496L32.8767 9.73033L32.4135 10.2494L31.9675 10.7823L31.5392 11.3285L31.129 11.888L30.737 12.4602L30.3635 13.0449L30.009 13.6419L29.6735 14.2507L29.3573 14.8709L29.0606 15.5025L28.7837 16.1447L28.5271 16.7975L28.2907 17.4604L28.0749 18.1331L27.8798 18.8152L27.7054 19.506L27.5522 20.2054L27.4201 20.913L27.3092 21.6282L27.2201 22.3507L27.1524 23.08L27.1064 23.8157L27.0823 24.5575L27.08 25.3047L27.0996 26.0569L27.1411 26.8138L27.2045 27.5745L27.29 28.3391L27.3975 29.1069L27.5272 29.8771L27.6787 30.6496L27.8522 31.4238L28.0475 32.199L28.2647 32.9751L28.5034 33.7513L28.7636 34.527L29.0455 35.302L29.3487 36.0756L29.6731 36.8472L30.0186 37.6165L30.3847 38.383L30.7714 39.1461L31.1787 39.9051L31.6061 40.6599L32.0534 41.4095L32.5205 42.1538L33.0069 42.8923L33.5122 43.6242L34.0364 44.349L34.5792 45.0666L35.1399 45.7761L35.7184 46.4772L36.3144 47.1695L36.9275 47.8523L37.5572 48.5252L38.203 49.1878L38.8646 49.8398L39.5415 50.4804L40.2334 51.1096L40.9399 51.7263L41.6603 52.3308L42.3943 52.9221L43.1411 53.5001L43.9006 54.0645L44.6722 54.6147L45.4552 55.1504L46.2493 55.6712L47.0536 56.1768L47.868 56.6668L48.6915 57.1407L49.5241 57.5987L50.3647 58.04L51.2131 58.4643L52.0685 58.8719L52.9303 59.2618L53.7981 59.6341L54.6712 59.9886L55.5491 60.3247L56.431 60.6427L57.3165 60.9421L58.2048 61.2229L59.0955 61.4846L59.9878 61.7274L60.8815 61.9511L61.7754 62.1552L62.6694 62.34L63.5627 62.5052L64.4546 62.6507L65.3446 62.7768L66.2323 62.883L67.117 62.9694L67.9978 63.036L68.8744 63.0826L69.7462 63.1096L70.6127 63.1166L71.4733 63.1038L72.3274 63.0713L73.1745 63.0194L74.0138 62.9476L74.8451 62.8563L75.6678 62.7456L76.4811 62.6155L77.285 62.4663L78.0784 62.2982L78.8614 62.1112L79.6333 61.9054L80.3934 61.681L81.1413 61.4383L81.8766 61.1776L82.5991 60.8987L83.3081 60.6021L84.0032 60.2882L84.684 59.957L85.3503 59.6089L86.0017 59.2441L86.6374 58.8627L87.2573 58.4652L87.8612 58.0519L88.4486 57.623L89.0194 57.179L89.5731 56.72L90.1094 56.2465L90.6281 55.7588L91.1285 55.2571L91.611 54.7417L92.0752 54.2132L92.5205 53.6719L92.9468 53.1182L93.3543 52.5524L93.7426 51.9748L94.1112 51.3859L94.4604 50.7862L94.7897 50.1759L95.0989 49.5554L95.3882 48.925L95.6575 48.2856L95.9064 47.6371L96.1351 46.9802L96.3432 46.315L96.531 45.6423L96.6982 44.9623L96.8447 44.2755L96.9706 43.5821L97.0759 42.8829L97.1608 42.1781L97.2249 41.4681L97.2685 40.7535L97.2916 40.0344L97.2939 39.3117L97.276 38.5854L97.2375 37.856L97.1787 37.1242L97.0999 36.3901L97.0007 35.6544L96.8817 34.9172L96.7428 34.1793L96.584 33.4408L96.4054 32.7023L96.2075 31.964L95.9902 31.2265L95.7536 30.4901L95.4983 29.7555L95.2239 29.0227L94.9311 28.2923L94.6196 27.5649L94.2901 26.8405L93.9424 26.1197L93.577 25.4028L93.1943 24.6904L92.794 23.9826L92.3769 23.2798L91.9429 22.5827L91.4922 21.8915L91.0253 21.2064L90.5426 20.5279L90.044 19.8563L89.5301 19.1919L89.0012 18.5352L88.4574 17.8867L87.8992 17.2463L87.3267 16.6146L86.7404 15.9921L86.1408 15.3786L85.5277 14.7749L84.9018 14.1813L84.2635 13.5977L83.6132 13.0248Z" fill="#0E0C15"/>
<path d="M84.5987 13.8417L83.9201 13.2438L83.229 12.6572L83.0999 12.5483L82.4114 11.9852L81.7116 11.4339L81.0009 10.8945L80.2794 10.3675L79.548 9.85298L78.8069 9.35102L78.0564 8.86231L77.297 8.38706L76.5288 7.92528L75.7526 7.47738L74.9686 7.04359L74.1775 6.62412L73.3792 6.21917L72.5746 5.82876L71.7639 5.45352L70.9476 5.09324L70.1262 4.74855L69.2998 4.41925L69.141 4.35857L68.2931 4.03868L67.4411 3.73481L66.5857 3.44761L65.7271 3.17665L64.8659 2.92257L64.0026 2.68559L63.1376 2.46549L62.8493 2.39582L61.9657 2.18897L61.0815 1.99985L60.1968 1.82826L59.3121 1.67462L58.4283 1.53893L58.0503 1.48315L57.1507 1.36327L56.2525 1.26198L55.3565 1.1795L54.0177 1.08355L53.1113 1.03739L52.2082 1.01068L51.3092 1.00299L50.8173 1L49.9074 1.01175L49.0026 1.04316L48.4834 1.07137L47.5694 1.1233L46.6617 1.1951L45.7607 1.28677L45.2028 1.34896L44.2951 1.46243L43.395 1.59598L42.8163 1.69192L41.9113 1.84792L41.0153 2.02464L40.4189 2.15478L39.5199 2.35458L38.6308 2.57511L38.0194 2.74008L37.1294 2.98454L36.2505 3.24951L35.6273 3.44974L34.7493 3.73908L33.8836 4.04936L33.2517 4.28484L32.3889 4.6197L31.5392 4.97528L30.9016 5.24603L30.0569 5.62661L29.4248 5.92812L28.586 6.33371L27.7627 6.76024L27.1301 7.09616L26.3147 7.54769L25.6914 7.91352L24.8851 8.38984L24.096 8.8871L23.4771 9.28584L22.6991 9.80789L22.093 10.2348L21.3272 10.7812L20.5801 11.3482L19.9831 11.8063L19.2501 12.3972L18.6693 12.8816L17.9517 13.4964L17.3884 14.0058L16.6873 14.6443L16.0071 15.3023L15.459 15.8393L14.797 16.5199L14.2694 17.0798L13.6264 17.7826L13.1204 18.3641L12.4975 19.0885L11.8979 19.8315L11.4126 20.4358L10.8345 21.1995L10.3732 21.8224L9.81781 22.6058L9.38145 23.2462L8.8498 24.0489L8.43929 24.7051L7.93157 25.5259L7.44927 26.3633L7.06527 27.035L6.60817 27.8893L6.25195 28.5735L5.82095 29.4437L5.49315 30.139L5.08884 31.0239L4.79032 31.7289L4.41336 32.6279L4.06356 33.5408L3.79494 34.2524L3.47313 35.1774L3.23508 35.8948L2.94146 36.831L2.73398 37.5524L2.46899 38.4982L2.23223 39.4559L2.05615 40.1767L1.84844 41.1422L1.70356 41.8632L1.52491 42.8352L1.41123 43.5547L1.26186 44.5324L1.14112 45.5192L1.05928 46.2301L0.967825 47.2204L0.917389 47.9258L0.854993 48.9179L0.821226 49.9174L0.802001 50.6089L0.796875 51.6083L0.808196 52.2902L0.83149 53.2881L0.883635 54.2914L0.924445 54.9538L1.00436 55.9537L1.18215 57.5974L1.31763 58.5955L1.4155 59.2199L1.5777 60.211L1.76746 61.2043L1.89139 61.8009L2.1068 62.7849L2.34933 63.7696L2.49741 64.3359L2.76432 65.3097L3.05814 66.2826L3.22867 66.8156L3.54536 67.7757L3.88854 68.7337L4.07873 69.2309L4.44328 70.1741L4.83327 71.1142L5.24868 72.0503L5.45084 72.4967L5.88526 73.4156L6.34427 74.3294L7.03685 75.6299L7.53687 76.5184L8.06042 77.3999L8.60703 78.2741L8.81817 78.6102L9.37867 79.4628L9.9612 80.3069L10.5653 81.1416L10.773 81.4194L11.3884 82.231L12.0244 83.0323L12.6804 83.823L13.3563 84.6021L14.0512 85.3695L14.2269 85.5607L14.9286 86.3028L15.6484 87.032L16.3856 87.748L17.1399 88.4502L17.9109 89.1381L18.6979 89.8112L19.5005 90.4692L19.6033 90.551L20.4062 91.1818L21.2231 91.7966L22.0537 92.3952L22.8974 92.977L23.7536 93.542L24.6216 94.0893L25.501 94.6188L26.391 95.13L27.2911 95.6225L28.2007 96.0963L29.1192 96.5508L30.046 96.9859L30.9802 97.4011L31.9213 97.7962L32.044 97.8468L33.0088 98.2285L33.9791 98.589L34.9548 98.9283L35.9348 99.2463L36.9185 99.5427L37.9053 99.8173L38.8945 100.07L39.1479 100.131L40.1559 100.365L41.1649 100.577L42.1742 100.766L43.1832 100.933L44.1912 101.076L44.5357 101.123L45.5582 101.245L46.5785 101.344L47.5955 101.42L47.9927 101.441L49.0215 101.494L50.0457 101.523L51.0648 101.528L51.5103 101.521L52.5379 101.502L53.559 101.459L54.5725 101.392L55.0616 101.353L56.0809 101.261L57.091 101.145L58.0917 101.005L58.6196 100.93L59.6228 100.765L60.615 100.575L61.1642 100.465L62.1566 100.249L63.1363 100.009L63.7039 99.8643L64.6815 99.598L65.6455 99.308L66.2278 99.1273L67.187 98.8106L68.1311 98.4706L68.725 98.2537L69.6622 97.8872L70.2561 97.6374L71.185 97.2444L72.0966 96.8286L72.6962 96.5433L73.5973 96.1014L74.4801 95.6373L75.0821 95.3165L75.9524 94.8267L76.548 94.4748L77.4042 93.96L78.2402 93.4234L78.8328 93.0375L79.6527 92.4766L80.235 92.0607L81.0378 91.4759L81.8189 90.8705L82.3931 90.4226L83.1551 89.7943L83.7154 89.3184L84.4575 88.6682L85.0026 88.1652L85.7238 87.4931L86.4211 86.8025L86.9515 86.2714L87.6263 85.5605L88.1383 85.0049L88.7897 84.2745L89.2818 83.6952L89.9092 82.9462L90.5107 82.1803L90.9825 81.5779L91.5591 80.795L92.0085 80.1716L92.5592 79.3729L92.9848 78.7301L93.509 77.9161L93.9103 77.2552L94.4073 76.4271L94.8777 75.5852L95.2527 74.9087L95.6955 74.0541L96.044 73.3628L96.4586 72.4972L96.78 71.7924L97.1661 70.9167L97.4595 70.2L97.8174 69.3153L98.1478 68.4195L98.4113 67.6958L98.713 66.7927L98.947 66.0608L99.2203 65.1518L99.4246 64.4128L99.6691 63.4991L99.8862 62.5766L100.059 61.8377L100.248 60.9119L100.39 60.1702L100.551 59.2426L100.662 58.4994L100.795 57.5713L100.901 56.6366L100.981 55.9007L101.059 54.9673L101.108 54.2335L101.16 53.3024L101.185 52.3665L101.203 51.645L101.202 50.7131L101.189 49.9979L101.163 49.0711L101.11 48.1409L101.068 47.443L100.99 46.5199L100.919 45.8318L100.817 44.9166L100.691 43.9996L100.592 43.3338L100.443 42.4262L100.269 41.5183L100.143 40.8772L99.9484 39.9801L99.73 39.0833L99.5787 38.4695L99.34 37.5853L99.0784 36.7021L98.9041 36.1181L98.6237 35.249L98.3211 34.3821L98.1254 33.8303L97.8057 32.9783L97.4644 32.1296L97.2492 31.6122L96.8922 30.7799L96.5146 29.9512L95.8904 28.6599L95.479 27.8534L95.0478 27.0518L94.808 26.6238L94.3653 25.8415L93.9037 25.0647L93.4238 24.2942L92.6917 23.1706L92.1848 22.4269L91.6606 21.6906L91.1195 20.9619L90.8885 20.6591L90.3413 19.9518L89.778 19.2526L89.1989 18.5619L88.6046 17.8803L87.9952 17.208L87.7956 16.99L87.1836 16.3402L86.5577 15.7002L85.9179 15.0702L85.2648 14.4505L84.5987 13.8417Z" fill="#0E0C15"/>
<path d="M43.395 1.59598L42.5033 1.74985L41.6201 1.92401L40.7465 2.11826L39.8826 2.33258L39.0289 2.567L38.1863 2.82129L37.3548 3.09567L36.5351 3.38971L35.7278 3.7032L34.9331 4.03655L34.1518 4.38914L33.3845 4.76096L32.6312 5.15202L31.8927 5.56209L31.1694 5.99096L30.4618 6.43843L29.7703 6.90427L29.0953 7.38828L28.4373 7.89024L27.7967 8.40994L27.1742 8.94716L26.5699 9.50169L25.9844 10.0731L25.4181 10.6612L24.8713 11.2657L24.3441 11.8865L23.8374 12.5228L23.3515 13.1746L22.8867 13.8417L22.4433 14.5234L22.0217 15.2196L21.6221 15.9299L21.2447 16.6537L20.8902 17.3907L20.5586 18.1408L20.2502 18.903L19.9656 19.6774L19.7049 20.4634L19.4681 21.2604L19.2555 22.0682L19.0674 22.886L18.9042 23.7136L18.7655 24.5504L18.6522 25.396L18.564 26.2497L18.5011 27.1113L18.464 27.9797L18.4522 28.855L18.4659 29.7365L18.5056 30.6233L18.5708 31.5152L18.6621 32.4114L18.7792 33.3117L18.9221 34.2152L19.0909 35.1212L19.2854 36.0296L19.5055 36.9393L19.7514 37.8501L20.0228 38.7612L20.3197 39.6722L20.6419 40.5821L20.9896 41.4905L21.362 42.397L21.7593 43.3007L22.1811 44.2012L22.6273 45.0976L23.0974 45.9895L23.5917 46.8763L24.1097 47.7574L24.6507 48.6322L25.2149 49.4998L25.8017 50.3601L26.4105 51.2121L27.0413 52.0556L27.6937 52.8894L28.367 53.7136L29.0611 54.5271L29.7754 55.3295L30.5095 56.1202L31.2629 56.8988L32.035 57.6647L32.8252 58.4173L33.6332 59.1563L34.4585 59.8807L35.3004 60.5904L36.1584 61.2844L37.0319 61.9629L37.9205 62.6249L38.8231 63.2702L39.7394 63.8985L40.6687 64.509L41.6105 65.1013L42.564 65.6751L43.5288 66.2301L44.5038 66.7656L45.4885 67.2816L46.4824 67.7776L47.4848 68.2533L48.4947 68.7085L49.5117 69.1424L50.5348 69.5553L51.5635 69.9466L52.5974 70.316L53.635 70.6635L54.6764 70.9887L55.7202 71.2917L56.766 71.5719L57.8133 71.8294L58.8611 72.064L59.9086 72.2754L60.9552 72.4636L62.0002 72.6288L63.043 72.7705L64.0828 72.8891L65.1188 72.984L66.1505 73.0555L67.177 73.1036L68.1978 73.128L69.212 73.1293L70.2194 73.107L71.2188 73.0615L72.2097 72.9929L73.1916 72.9013L74.1639 72.7865L75.1257 72.6489L76.0766 72.4886L77.0158 72.3057L77.943 72.1003L78.8576 71.873L79.7589 71.6236L80.6461 71.3524L81.5193 71.0599L82.3772 70.746L83.2198 70.4111L84.0466 70.0555L84.8569 69.6795L85.6506 69.2835L86.4267 68.8676L87.1851 68.4324L87.9253 67.9778L88.6467 67.5047L89.3491 67.013L90.0323 66.5034L90.6956 65.976L91.3388 65.4313L91.9617 64.8699L92.5637 64.2921L93.1445 63.6983L93.7041 63.0886L94.242 62.4638L94.7578 61.8242L95.2517 61.1703L95.7231 60.5025L96.172 59.8215L96.5984 59.1274L97.0014 58.421L97.3815 57.7023L97.7382 56.9721L98.0715 56.2311L98.3814 55.4793L98.6675 54.7175L98.9301 53.9461L99.1688 53.1655L99.3838 52.3763L99.5746 51.579L99.7417 50.7741L99.8847 49.9618L100.004 49.143L100.099 48.3181L100.17 47.4875L100.218 46.6518L100.241 45.8113L100.241 44.9668L100.217 44.1185L100.17 43.2669L100.099 42.4128L100.004 41.5565L99.8866 40.6983L99.7458 39.8391L99.5819 38.9792L99.3951 38.1189L99.1859 37.2588L98.9538 36.3995L98.6998 35.5411L98.4235 34.6847L98.1254 33.8303" fill="#0E0C15"/>
<path d="M26.3151 7.54771L25.5159 8.01997L24.7338 8.51274L23.969 9.02581L23.2221 9.55875L22.4937 10.1116L21.7842 10.6843L21.0944 11.276L20.4243 11.8869L19.7745 12.5167L19.1456 13.1648L18.5378 13.8311L17.9517 14.5153L17.3878 15.2168L16.8465 15.9355L16.3281 16.671L15.8332 17.4228L15.3618 18.1908L14.9147 18.9742L14.492 19.7727L14.0941 20.586L13.7215 21.4137L13.3742 22.2552L13.053 23.1099L12.7579 23.9775L12.4891 24.8577L12.247 25.7496L12.0318 26.6529L11.8436 27.5671L11.6829 28.4915L11.5495 29.4258L11.4442 30.3692L11.3668 31.3212L11.3174 32.2813L11.2961 33.2489L11.3031 34.2233L11.3386 35.2039L11.4025 36.1901L11.495 37.1814L11.616 38.1772L11.7658 39.1764L11.944 40.1791L12.1506 41.1839L12.3859 42.1906L12.6494 43.1985L12.9413 44.2067L13.2614 45.2147L13.6097 46.2218L13.986 47.2274L14.3899 48.2307L14.8215 49.2312L15.2803 50.2279L15.7663 51.2205L16.2789 52.2079L16.8181 53.1896L17.3837 54.1651L17.9752 55.1334L18.5923 56.0941L19.2345 57.0463L19.9014 57.9895L20.5927 58.9232L21.3079 59.8463L22.0468 60.7583L22.8087 61.6588L23.5931 62.5467L24.3996 63.4218L25.2274 64.2831L26.0762 65.1304L26.9455 65.963L27.8344 66.7801L28.7426 67.581L29.6694 68.3655L30.6141 69.1329L31.5761 69.8825L32.5549 70.6139L33.5494 71.3266L34.5593 72.0202L35.5837 72.694L36.622 73.3475L37.6734 73.9802L38.7373 74.592L39.8128 75.182L40.899 75.7502L41.9957 76.2962L43.1015 76.8195L44.2159 77.3195L45.338 77.7963L46.4674 78.2493L47.6027 78.6782L48.7436 79.0827L49.8892 79.4628L51.0384 79.8182L52.1909 80.1486L53.3452 80.4535L54.5013 80.7332L55.6578 80.9873L56.814 81.2157L57.9695 81.4183L59.123 81.5948L60.2739 81.7457L61.4214 81.8705L62.5649 81.969L63.7034 82.0417L64.8362 82.088L65.9623 82.1083L67.0815 82.1026L68.1926 82.0709L69.2951 82.0135L70.3881 81.9303L71.4711 81.8216L72.5432 81.6872L73.6037 81.5275L74.6521 81.3425L75.6876 81.1326L76.7095 80.898L77.7172 80.6388L78.7105 80.3554L79.6881 80.0481L80.6497 79.7169L81.5947 79.3622L82.5227 78.9844L83.4328 78.5837L84.325 78.1606L85.1981 77.7153L86.0522 77.2484L86.8867 76.7601L87.7006 76.2507L88.4943 75.7207L89.2666 75.1705L90.0175 74.6003L90.7464 74.011L91.4533 73.4026L92.1373 72.776L92.7987 72.1314L93.4365 71.4691L94.0507 70.79L94.6409 70.094L95.2069 69.3822L95.7486 68.6548L96.2656 67.9122L96.7577 67.1552L97.2248 66.3841L97.6665 65.5995L98.0828 64.802L98.4732 63.9919L98.838 63.1698L99.1769 62.3364L99.4899 61.4921L99.7769 60.6378L100.038 59.7734L100.272 58.8999L100.48 58.0177L100.662 57.1273L100.818 56.2294L100.948 55.3244L101.051 54.4128L101.128 53.4954L101.179 52.5727L101.204 51.6451" fill="#0E0C15"/>
<path d="M13.6264 17.7826L13.0062 18.5045L12.409 19.2445L11.8354 20.0027L11.2858 20.7786L10.7606 21.5716L10.2601 22.3817L9.78485 23.208L9.33524 24.0504L8.91149 24.9083L8.51403 25.7813L8.14328 26.6689L7.79988 27.5707L7.48361 28.486L7.19492 29.4144L6.93442 30.3553L6.70194 31.3082L6.49786 32.2725L6.32242 33.2478L6.17605 34.2334L6.05873 35.2285L5.9709 36.2329L5.91256 37.2458L5.88371 38.2666L5.88457 39.2946L5.91534 40.3291L5.97602 41.3696L6.06663 42.4156L6.18757 43.4659L6.33845 44.5202L6.51944 45.578L6.73057 46.6381L6.97161 47.7001L7.24236 48.7635L7.54323 49.8272L7.87382 50.8908L8.23409 51.9532L8.62386 53.014L9.04291 54.0724L9.49102 55.1278L9.96776 56.1792L10.4734 57.226L11.0072 58.2676L11.5689 59.3031L12.1585 60.3318L12.7757 61.353L13.4197 62.3661L14.0905 63.3703L14.7873 64.3648L15.51 65.349L16.258 66.3222L17.0309 67.2836L17.8281 68.2326L18.6494 69.1683L19.4939 70.0904L20.361 70.9981L21.2504 71.8905L22.1614 72.7675L23.0933 73.6278L24.0457 74.4713L25.0176 75.297L26.0086 76.1045L27.0181 76.8934L28.0451 77.6627L29.089 78.4124L30.1491 79.1415L31.2248 79.8496L32.3151 80.5364L33.4194 81.201L34.5368 81.8434L35.6666 82.4626L36.8079 83.0588L37.9601 83.6313L39.1222 84.1796L40.2934 84.7034L41.4728 85.2024L42.6598 85.6761L43.8535 86.1244L45.0527 86.5469L46.2571 86.9433L47.4655 87.3134L48.6771 87.657L49.8911 87.9741L51.1066 88.2641L52.3227 88.527L53.5388 88.7625L54.7536 88.9708L55.967 89.1516L57.1773 89.305L58.3842 89.4309L59.5869 89.529L60.7842 89.5997L61.9755 89.6426L63.1602 89.658L64.3372 89.6459L65.5059 89.6063L66.6654 89.5394L67.815 89.4454L68.9538 89.3245L70.0814 89.1764L71.1967 89.0014L72.2993 88.8001L73.3881 88.5723L74.4629 88.3184L75.5226 88.0387L76.5669 87.7333L77.595 87.403L78.6062 87.0474L79.5998 86.667L80.5753 86.2623L81.5325 85.8336L82.4703 85.3812L83.3884 84.9058L84.2863 84.4074L85.1633 83.8865L86.0191 83.3435L86.8533 82.7789L87.6651 82.1932L88.4543 81.5867L89.2206 80.9598L89.9634 80.3133L90.6827 79.6475L91.3776 78.963L92.0479 78.26L92.6935 77.5392L93.3139 76.8011L93.9088 76.0462L94.478 75.2752L95.0214 74.4886L95.5388 73.6866L96.0296 72.8701L96.494 72.0397L96.9316 71.1956L97.3421 70.3387L97.7257 69.4692L98.0821 68.5882L98.4113 67.6958" fill="#0E0C15"/>
<path d="M5.08862 31.0239L4.71124 31.9238L4.36122 32.8375L4.03854 33.7651L3.74387 34.7058L3.47719 35.6593L3.23891 36.6245L3.02907 37.6015L2.84828 38.5892L2.69657 39.5873L2.57434 40.5951L2.48159 41.6123L2.41856 42.6378L2.38522 43.671L2.38202 44.7116L2.40874 45.7587L2.46557 46.8118L2.55275 47.8702L2.67029 48.9331L2.81816 50L2.99638 51.07L3.20494 52.1425L3.44363 53.2169L3.71245 54.2922L4.01141 55.3679L4.34049 56.4435L4.69928 57.5179L5.08798 58.5904L5.50638 59.6604L5.95385 60.7271L6.43038 61.7898L6.93597 62.8477L7.46999 63.9004L8.03241 64.9466L8.62284 65.986L9.24105 67.0177L9.8864 68.0411L10.5589 69.0552L11.2574 70.0596L11.9823 71.0533L12.7328 72.0358L13.5082 73.0064L14.3085 73.9641L15.1329 74.9087L15.9809 75.8391L16.8516 76.7547L17.7451 77.6552L18.6603 78.5395L19.5967 79.4073L20.5536 80.2575L21.5306 81.0901L22.5268 81.904L23.5416 82.6987L24.5744 83.474L25.624 84.229L26.6904 84.9632L27.7723 85.6761L28.8689 86.3674L29.9799 87.036L31.1043 87.682L32.2412 88.3049L33.39 88.9041L34.5495 89.4793L35.7192 90.03L36.8981 90.5559L38.0856 91.0566L39.2808 91.5316L40.4826 91.9808L41.6906 92.4039L42.9033 92.8005L44.1204 93.1706L45.3408 93.514L46.5638 93.8301L47.7882 94.119L49.0135 94.3803L50.2388 94.6141L51.4631 94.8201L52.6858 94.9985L53.9055 95.149L55.1221 95.2716L56.3341 95.3663L57.5413 95.433L58.7424 95.4719L59.9365 95.4825L61.1234 95.4657L62.3019 95.421L63.4712 95.3486L64.6304 95.2488L65.7792 95.1216L66.9165 94.9671L68.0416 94.7857L69.1538 94.5774L70.2524 94.3423L71.3369 94.0809L72.4064 93.7935L73.4601 93.4803L74.4978 93.1414L75.5184 92.7772L76.5215 92.3881L77.5064 91.9746L78.4727 91.5365L79.4197 91.0748L80.3469 90.5897L81.2536 90.0815L82.1398 89.5505L83.0044 88.9975L83.8472 88.4224L84.6676 87.826L85.4652 87.2089L86.2399 86.5712L86.991 85.9137L87.718 85.2367L88.421 84.5407L89.0991 83.8264L89.7523 83.0941L90.3801 82.3444L90.9823 81.5779" fill="#0E0C15"/>
<path d="M78.8328 93.0375L77.9915 93.5773L77.1299 94.0953L76.2482 94.5912L75.3471 95.065L74.4269 95.5161L73.4882 95.9439L72.5315 96.3482L71.5575 96.7288L70.5666 97.0848L69.5595 97.4166L68.5368 97.7235L67.4993 98.0054L66.4473 98.2618L65.3818 98.4928L64.3031 98.6979L63.2125 98.877L62.11 99.03L60.9967 99.1563L59.8731 99.2561L58.7404 99.3294L57.5986 99.3758L56.4492 99.3952L55.2927 99.3877L54.1296 99.3533L52.9609 99.2916L51.7875 99.2027L50.6101 99.0869L49.4294 98.9439L48.2464 98.774L47.062 98.5772L45.8766 98.3535L44.6913 98.103L43.507 97.8259L42.3242 97.5222L41.144 97.1925L39.9674 96.8365L38.7947 96.4546L37.6271 96.0473L36.4655 95.6146L35.3103 95.1569L34.1628 94.6741L33.0234 94.1668L31.8932 93.6356L30.7728 93.0807L29.6631 92.5022L28.5647 91.9009L27.4787 91.2771L26.4056 90.6311L25.3463 89.9633L24.3016 89.2744L23.272 88.5647L22.2583 87.8348L21.2612 87.0854L20.2814 86.3167L19.3198 85.5295L18.3766 84.7241L17.453 83.9014L16.5491 83.0618L15.6659 82.2057L14.8039 81.3343L13.9635 80.4477L13.1452 79.5468L12.3499 78.632L11.5778 77.7044L10.8297 76.7641L10.1059 75.8121L9.40673 74.8492L8.73296 73.8757L8.08462 72.8927L7.46214 71.9007L6.86616 70.9002L6.29711 69.8923L5.75498 68.8774L5.24041 67.8564L4.75319 66.8299L4.29419 65.7986L3.86317 64.7633L3.46036 63.7247L3.0862 62.6834L2.74087 61.6402L2.4244 60.5959L2.13698 59.5509L1.87884 58.5062L1.64977 57.4623L1.44975 56.4199L1.27923 55.3799L1.13798 54.3427L1.02601 53.3092L0.943514 52.2799L0.890091 51.2555L0.866158 50.2368L0.871075 49.2243L0.905051 48.2185L0.967825 47.2204" fill="#0E0C15"/>
<path d="M3.05814 66.2826L3.3789 67.2543L3.72614 68.224L4.09989 69.1909L4.49972 70.1547L4.9256 71.1144L5.37734 72.0693L5.85473 73.0192L6.35732 73.9631L6.88492 74.9003L7.43753 75.8305L8.01427 76.7526L8.61517 77.6661L9.23978 78.5707L9.88748 79.4654L10.5583 80.3496L11.2515 81.2228L11.9667 82.0842L12.7037 82.9334L13.4617 83.7697L14.2401 84.5924L15.0389 85.4013L15.8569 86.1956L16.6942 86.9745L17.5498 87.7376L18.4233 88.4844L19.3142 89.2146L20.2218 89.9272L21.1453 90.6219L22.0843 91.2985L23.038 91.9564L24.0058 92.5947L24.9873 93.2136L25.9814 93.8121L26.9874 94.3899L28.0052 94.9468L29.0333 95.4825L30.0716 95.9965L31.1189 96.4884L32.1747 96.9579L33.2385 97.4045L34.3093 97.8282L35.3861 98.2285L36.4686 98.6054L37.5559 98.9584L38.6472 99.2875L39.7417 99.5924L40.8388 99.8728L41.9374 100.129L43.0373 100.36L44.1371 100.566L45.2366 100.747L46.3347 100.904L47.431 101.035L48.5242 101.141L49.614 101.223L50.6996 101.278L51.7802 101.309L52.8551 101.315L53.9233 101.295L54.9847 101.251L56.0382 101.181L57.0831 101.087L58.1189 100.968L59.1448 100.825L60.1601 100.657L61.1642 100.465" fill="#0E0C15"/>
<path d="M43.395 1.59598L44.2951 1.46243L45.2028 1.34896L45.7607 1.28677L46.6617 1.1951L47.5694 1.1233L48.4834 1.07137L49.0026 1.04316L49.9074 1.01175L50.8173 1L51.3092 1.00299L52.2082 1.01068L53.1113 1.03739L54.0177 1.08355L55.3565 1.1795L56.2525 1.26198L57.1507 1.36327L58.0503 1.48315L58.4283 1.53893L59.3121 1.67462L60.1968 1.82826L61.0815 1.99985L61.9657 2.18897L62.8493 2.39582L63.1376 2.46549L64.0026 2.68559L64.8659 2.92257L65.7271 3.17665L66.5857 3.44761L67.4411 3.73481L68.2931 4.03868L69.141 4.35857L69.2998 4.41925L70.1262 4.74855L70.9476 5.09324L71.7639 5.45352L72.5746 5.82876L73.3792 6.21917L74.1775 6.62412L74.9686 7.04359L75.7526 7.47738L76.5288 7.92528L77.297 8.38706L78.0564 8.86231L78.8069 9.35102L79.548 9.85298L80.2794 10.3675L81.0009 10.8945L81.7116 11.4339L82.4114 11.9852L83.0999 12.5483L83.229 12.6572L83.9201 13.2438L84.5987 13.8417L85.2648 14.4505L85.9179 15.0702L86.5577 15.7002L87.1836 16.3402L87.7956 16.99L87.9952 17.208L88.6046 17.8803L89.1989 18.5619L89.778 19.2526L90.3413 19.9518L90.8885 20.6591L91.1195 20.9619L91.6606 21.6906L92.1848 22.4269L92.6916 23.1706L93.4238 24.2942L93.9037 25.0647L94.3653 25.8415L94.808 26.6238L95.0478 27.0518L95.479 27.8534L95.8904 28.6599L96.5146 29.9512L96.8922 30.7799L97.2492 31.6122L97.4644 32.1296L97.8057 32.9783L98.1254 33.8303M43.395 1.59598L42.8163 1.69192L41.9113 1.84792L41.0153 2.02464L40.4189 2.15478L39.5199 2.35458L38.6308 2.57511L38.0194 2.74008L37.1294 2.98454L36.2504 3.24951L35.6273 3.44974L34.7493 3.73908L33.8836 4.04936L33.2517 4.28484L32.3889 4.6197L31.5392 4.97528L30.9016 5.24603L30.0569 5.62661L29.4248 5.92812L28.586 6.33371L27.7627 6.76024L27.1301 7.09616L26.3147 7.54768L25.6914 7.91352L24.8851 8.38984L24.096 8.8871L23.4771 9.28584L22.6991 9.80789L22.093 10.2348L21.3272 10.7812L20.5801 11.3482L19.9831 11.8063L19.2501 12.3972L18.6693 12.8816L17.9517 13.4964L17.3884 14.0058L16.6873 14.6443L16.0071 15.3023L15.459 15.8393L14.797 16.5199L14.2694 17.0798L13.6264 17.7826M43.395 1.59598L42.5033 1.74985L41.6201 1.92401L40.7465 2.11826L39.8826 2.33258L39.0289 2.567L38.1863 2.82129L37.3548 3.09567L36.5351 3.38971L35.7278 3.7032L34.9331 4.03655L34.1518 4.38914L33.3845 4.76096L32.6312 5.15202L31.8927 5.56209L31.1694 5.99096L30.4618 6.43843L29.7703 6.90427L29.0953 7.38828L28.4373 7.89024L27.7967 8.40994L27.1742 8.94716L26.5699 9.50169L25.9844 10.0731L25.4181 10.6612L24.8713 11.2657L24.3441 11.8865L23.8374 12.5228L23.3515 13.1746L22.8867 13.8417L22.4433 14.5234L22.0217 15.2196L21.6221 15.9299L21.2447 16.6537L20.8902 17.3907L20.5586 18.1408L20.2502 18.903L19.9656 19.6774L19.7049 20.4634L19.4681 21.2604L19.2555 22.0682L19.0674 22.886L18.9042 23.7136L18.7655 24.5504L18.6522 25.396L18.564 26.2497L18.5011 27.1113L18.464 27.9797L18.4522 28.855L18.4659 29.7365L18.5056 30.6233L18.5708 31.5152L18.662 32.4114L18.7792 33.3117L18.9221 34.2152L19.0909 35.1212L19.2854 36.0296L19.5055 36.9393L19.7514 37.8501L20.0228 38.7612L20.3197 39.6722L20.6419 40.5821L20.9896 41.4905L21.362 42.397L21.7593 43.3007L22.1811 44.2012L22.6273 45.0976L23.0974 45.9895L23.5917 46.8763L24.1097 47.7574L24.6507 48.6322L25.2149 49.4998L25.8017 50.3601L26.4105 51.2121L27.0413 52.0556L27.6937 52.8894L28.367 53.7136L29.0611 54.5271L29.7754 55.3295L30.5095 56.1202L31.2629 56.8988L32.035 57.6647L32.8252 58.4173L33.6332 59.1563L34.4585 59.8807L35.3004 60.5903L36.1584 61.2844L37.0319 61.9629L37.9205 62.6249L38.8231 63.2702L39.7394 63.8985L40.6687 64.509L41.6105 65.1013L42.564 65.6751L43.5288 66.2301L44.5038 66.7656L45.4885 67.2816L46.4824 67.7776L47.4848 68.2533L48.4947 68.7084L49.5117 69.1424L50.5348 69.5553L51.5635 69.9466L52.5974 70.316L53.635 70.6635L54.6764 70.9887L55.7202 71.2917L56.766 71.5719L57.8133 71.8294L58.8611 72.064L59.9086 72.2754L60.9552 72.4636L62.0002 72.6288L63.043 72.7705L64.0828 72.8891L65.1188 72.984L66.1505 73.0555L67.177 73.1036L68.1978 73.128L69.212 73.1293L70.2194 73.107L71.2188 73.0615L72.2097 72.9929L73.1916 72.9013L74.1639 72.7865L75.1257 72.6489L76.0766 72.4886L77.0158 72.3057L77.943 72.1003L78.8576 71.873L79.7589 71.6236L80.6461 71.3524L81.5193 71.0599L82.3772 70.746L83.2199 70.4111L84.0466 70.0556L84.8569 69.6795L85.6506 69.2835L86.4267 68.8676L87.1851 68.4324L87.9253 67.9778L88.6467 67.5047L89.3491 67.013L90.0323 66.5034L90.6956 65.976L91.3388 65.4313L91.9617 64.8699L92.5637 64.2921L93.1445 63.6983L93.7041 63.0886L94.242 62.4638L94.7578 61.8242L95.2517 61.1703L95.7231 60.5025L96.172 59.8215L96.5984 59.1274L97.0014 58.421L97.3815 57.7023L97.7382 56.9721L98.0715 56.2311L98.3814 55.4793L98.6675 54.7175L98.9301 53.9461L99.1688 53.1655L99.3838 52.3763L99.5746 51.579L99.7417 50.7741L99.8847 49.9618L100.004 49.143L100.099 48.3181L100.17 47.4875L100.218 46.6518L100.241 45.8113L100.241 44.9668L100.217 44.1185L100.17 43.2669L100.099 42.4128L100.004 41.5565L99.8866 40.6983L99.7458 39.8391L99.5819 38.9792L99.3951 38.1189L99.1859 37.2588L98.9539 36.3995L98.6998 35.5411L98.4235 34.6847L98.1254 33.8303M13.6264 17.7826L13.1204 18.3641L12.4975 19.0885L11.8979 19.8315L11.4126 20.4358L10.8345 21.1995L10.3732 21.8224L9.81781 22.6058L9.38145 23.2462L8.8498 24.0489L8.43929 24.7051L7.93157 25.5259L7.44927 26.3633L7.06527 27.035L6.60817 27.8893L6.25195 28.5735L5.82095 29.4437L5.49315 30.139L5.08884 31.0239L4.79032 31.7289L4.41336 32.6279L4.06356 33.5408L3.79494 34.2524L3.47313 35.1774L3.23508 35.8948L2.94146 36.831L2.73398 37.5524L2.46899 38.4982L2.23223 39.4559L2.05615 40.1767L1.84844 41.1422L1.70356 41.8632L1.52491 42.8352L1.41123 43.5547L1.26186 44.5324L1.14112 45.5192L1.05928 46.2301L0.967825 47.2204M13.6264 17.7826L13.0062 18.5045L12.409 19.2445L11.8354 20.0027L11.2858 20.7786L10.7606 21.5716L10.2601 22.3817L9.78485 23.208L9.33524 24.0504L8.91149 24.9083L8.51403 25.7813L8.14328 26.6689L7.79988 27.5707L7.48361 28.486L7.19492 29.4144L6.93442 30.3553L6.70194 31.3082L6.49786 32.2725L6.32242 33.2478L6.17605 34.2334L6.05873 35.2285L5.9709 36.2329L5.91256 37.2458L5.88371 38.2666L5.88457 39.2946L5.91534 40.3291L5.97602 41.3696L6.06663 42.4156L6.18757 43.4659L6.33845 44.5202L6.51944 45.578L6.73057 46.6381L6.97161 47.7001L7.24236 48.7635L7.54323 49.8272L7.87382 50.8907L8.23409 51.9532L8.62386 53.014L9.04291 54.0724L9.49102 55.1278L9.96776 56.1792L10.4734 57.226L11.0072 58.2676L11.5689 59.3031L12.1585 60.3318L12.7757 61.353L13.4197 62.3661L14.0905 63.3703L14.7873 64.3648L15.51 65.349L16.258 66.3222L17.0309 67.2836L17.8281 68.2326L18.6494 69.1683L19.4939 70.0904L20.361 70.9981L21.2504 71.8905L22.1614 72.7675L23.0933 73.6278L24.0457 74.4713L25.0176 75.297L26.0087 76.1045L27.0181 76.8934L28.0451 77.6627L29.089 78.4124L30.1491 79.1415L31.2248 79.8496L32.3151 80.5364L33.4194 81.201L34.5368 81.8434L35.6666 82.4626L36.8079 83.0588L37.9601 83.6313L39.1222 84.1796L40.2934 84.7034L41.4728 85.2024L42.6598 85.6761L43.8535 86.1244L45.0527 86.5469L46.2571 86.9433L47.4655 87.3134L48.6771 87.657L49.8911 87.9741L51.1066 88.2641L52.3227 88.527L53.5388 88.7625L54.7536 88.9708L55.967 89.1516L57.1773 89.305L58.3842 89.4309L59.5869 89.529L60.7842 89.5997L61.9755 89.6426L63.1602 89.658L64.3372 89.6458L65.5059 89.6063L66.6654 89.5394L67.815 89.4454L68.9538 89.3245L70.0814 89.1764L71.1967 89.0014L72.2993 88.8001L73.3881 88.5723L74.4629 88.3184L75.5226 88.0387L76.5669 87.7333L77.595 87.403L78.6062 87.0474L79.5998 86.667L80.5753 86.2623L81.5325 85.8336L82.4703 85.3812L83.3884 84.9058L84.2863 84.4074L85.1633 83.8865L86.0191 83.3435L86.8533 82.7789L87.6651 82.1932L88.4543 81.5867L89.2206 80.9598L89.9634 80.3133L90.6827 79.6475L91.3776 78.963L92.0479 78.26L92.6935 77.5392L93.3139 76.8011L93.9087 76.0462L94.478 75.2752L95.0214 74.4886L95.5388 73.6866L96.0296 72.8701L96.494 72.0397L96.9316 71.1956L97.3421 70.3387L97.7257 69.4692L98.0821 68.5882L98.4113 67.6958M0.967825 47.2204L0.917389 47.9258L0.854993 48.9179L0.821226 49.9174L0.802001 50.6089L0.796875 51.6083L0.808196 52.2902L0.83149 53.2881L0.883635 54.2914L0.924445 54.9538L1.00436 55.9537L1.18215 57.5974L1.31763 58.5955L1.4155 59.2199L1.5777 60.211L1.76746 61.2043L1.89139 61.8009L2.1068 62.7849L2.34933 63.7696L2.49741 64.3359L2.76432 65.3097L3.05814 66.2826M0.967825 47.2204L0.905051 48.2185L0.871075 49.2243L0.866158 50.2368L0.890091 51.2555L0.943514 52.2799L1.02601 53.3092L1.13798 54.3427L1.27923 55.3799L1.44975 56.4199L1.64977 57.4623L1.87884 58.5062L2.13698 59.5509L2.4244 60.5959L2.74087 61.6402L3.0862 62.6834L3.46036 63.7247L3.86317 64.7633L4.29419 65.7986L4.75319 66.8299L5.24041 67.8564L5.75498 68.8775L6.29711 69.8923L6.86616 70.9002L7.46214 71.9007L8.08462 72.8927L8.73296 73.8757L9.40673 74.8492L10.1059 75.8121L10.8297 76.7641L11.5778 77.7044L12.3499 78.632L13.1452 79.5468L13.9635 80.4477L14.8039 81.3343L15.6659 82.2057L16.5491 83.0618L17.453 83.9014L18.3766 84.7241L19.3198 85.5295L20.2814 86.3167L21.2612 87.0854L22.2583 87.8348L23.272 88.5647L24.3016 89.2744L25.3463 89.9633L26.4056 90.6311L27.4787 91.2771L28.5647 91.9009L29.6631 92.5022L30.7728 93.0807L31.8932 93.6356L33.0234 94.1668L34.1628 94.6741L35.3103 95.1569L36.4655 95.6146L37.6271 96.0473L38.7947 96.4546L39.9674 96.8365L41.144 97.1925L42.3242 97.5222L43.507 97.8259L44.6913 98.103L45.8766 98.3535L47.062 98.5772L48.2464 98.774L49.4294 98.9439L50.6101 99.0869L51.7875 99.2027L52.9609 99.2916L54.1295 99.3533L55.2927 99.3877L56.4492 99.3952L57.5986 99.3758L58.7404 99.3294L59.8731 99.2561L60.9967 99.1563L62.11 99.03L63.2125 98.877L64.3031 98.6979L65.3818 98.4928L66.4473 98.2618L67.4993 98.0054L68.5368 97.7235L69.5595 97.4166L70.5666 97.0848L71.5575 96.7288L72.5315 96.3482L73.4882 95.9439L74.4269 95.5161L75.3471 95.065L76.2482 94.5912L77.1299 94.0953L77.9915 93.5773L78.8328 93.0375M3.05814 66.2826L3.22867 66.8156L3.54536 67.7757L3.88854 68.7336L4.07873 69.2309L4.44328 70.1741L4.83327 71.1142L5.24868 72.0503L5.45084 72.4967L5.88526 73.4156L6.34427 74.3294L7.03685 75.6299L7.53687 76.5184L8.06042 77.3999L8.60703 78.2741L8.81817 78.6102L9.37867 79.4628L9.9612 80.3069L10.5653 81.1416L10.773 81.4194L11.3884 82.231L12.0244 83.0323L12.6804 83.823L13.3563 84.6021L14.0512 85.3695L14.2269 85.5607L14.9286 86.3028L15.6484 87.032L16.3856 87.748L17.1399 88.4502L17.9109 89.1381L18.6979 89.8112L19.5005 90.4692L19.6033 90.551L20.4062 91.1818L21.2231 91.7966L22.0537 92.3952L22.8974 92.977L23.7536 93.542L24.6216 94.0893L25.501 94.6188L26.391 95.13L27.2911 95.6225L28.2007 96.0963L29.1192 96.5508L30.046 96.9859L30.9802 97.4011L31.9213 97.7962L32.044 97.8468L33.0088 98.2285L33.9791 98.589L34.9548 98.9283L35.9348 99.2463L36.9185 99.5427L37.9053 99.8173L38.8945 100.07L39.1479 100.131L40.1559 100.365L41.1649 100.577L42.1742 100.766L43.1832 100.933L44.1912 101.076L44.5357 101.123L45.5582 101.245L46.5785 101.344L47.5955 101.42L47.9927 101.441L49.0214 101.494L50.0457 101.523L51.0648 101.528L51.5103 101.521L52.5379 101.502L53.559 101.459L54.5725 101.392L55.0616 101.353L56.0809 101.261L57.091 101.145L58.0917 101.005L58.6196 100.93L59.6228 100.765L60.615 100.575L61.1642 100.465M3.05814 66.2826L3.3789 67.2543L3.72614 68.224L4.09989 69.1909L4.49972 70.1547L4.9256 71.1144L5.37734 72.0693L5.85473 73.0192L6.35732 73.9631L6.88492 74.9003L7.43753 75.8305L8.01427 76.7526L8.61517 77.6661L9.23978 78.5707L9.88748 79.4654L10.5583 80.3496L11.2515 81.2228L11.9667 82.0842L12.7037 82.9334L13.4617 83.7697L14.2401 84.5924L15.0389 85.4013L15.8569 86.1956L16.6942 86.9745L17.5498 87.7376L18.4233 88.4844L19.3142 89.2146L20.2218 89.9272L21.1453 90.6219L22.0843 91.2985L23.038 91.9564L24.0058 92.5947L24.9873 93.2136L25.9814 93.8121L26.9874 94.3899L28.0052 94.9468L29.0333 95.4825L30.0716 95.9965L31.1189 96.4884L32.1747 96.9579L33.2385 97.4045L34.3093 97.8282L35.3861 98.2285L36.4686 98.6054L37.5559 98.9584L38.6472 99.2875L39.7417 99.5924L40.8388 99.8728L41.9374 100.129L43.0373 100.36L44.1371 100.566L45.2366 100.747L46.3347 100.904L47.431 101.035L48.5242 101.141L49.614 101.223L50.6996 101.278L51.7802 101.309L52.8551 101.315L53.9233 101.295L54.9847 101.251L56.0382 101.181L57.0831 101.087L58.1189 100.968L59.1448 100.825L60.1601 100.657L61.1642 100.465M61.1642 100.465L62.1566 100.249L63.1363 100.009L63.7039 99.8643L64.6815 99.598L65.6455 99.308L66.2278 99.1273L67.1871 98.8106L68.1311 98.4706L68.725 98.2537L69.6622 97.8872L70.2561 97.6374L71.185 97.2444L72.0966 96.8286L72.6962 96.5433L73.5973 96.1014L74.4801 95.6373L75.0821 95.3165L75.9524 94.8267L76.548 94.4748L77.4042 93.96L78.2402 93.4234L78.8328 93.0375M78.8328 93.0375L79.6527 92.4766L80.235 92.0607L81.0378 91.4759L81.8189 90.8705L82.3931 90.4226L83.1551 89.7943L83.7154 89.3184L84.4575 88.6682L85.0026 88.1652L85.7238 87.4931L86.4211 86.8025L86.9515 86.2714L87.6263 85.5605L88.1383 85.0049L88.7897 84.2745L89.2818 83.6952L89.9092 82.9462L90.5107 82.1803L90.9825 81.5779L91.5591 80.795L92.0085 80.1716L92.5592 79.3729L92.9848 78.7301L93.509 77.9161L93.9103 77.2552L94.4073 76.4271L94.8777 75.5852L95.2527 74.9087L95.6955 74.0541L96.044 73.3628L96.4586 72.4972L96.78 71.7924L97.1661 70.9167L97.4595 70.2L97.8174 69.3153L98.1478 68.4195L98.4113 67.6958M98.4113 67.6958L98.713 66.7927L98.947 66.0608L99.2203 65.1518L99.4246 64.4128L99.6691 63.4991L99.8862 62.5766L100.059 61.8376L100.248 60.9119L100.39 60.1702L100.551 59.2426L100.662 58.4994L100.795 57.5713L100.901 56.6366L100.981 55.9007L101.059 54.9673L101.108 54.2335L101.16 53.3024L101.185 52.3665L101.203 51.645L101.202 50.7131L101.189 49.9979L101.163 49.0711L101.11 48.141L101.068 47.443L100.99 46.5199L100.919 45.8318L100.817 44.9166L100.691 43.9996L100.592 43.3338L100.443 42.4262L100.269 41.5183L100.143 40.8772L99.9484 39.9801L99.73 39.0833L99.5787 38.4695L99.34 37.5853L99.0784 36.7021L98.9041 36.1181L98.6237 35.249L98.3211 34.3821L98.1254 33.8303M26.3151 7.54771L25.5159 8.01997L24.7338 8.51274L23.969 9.02581L23.2221 9.55875L22.4937 10.1116L21.7842 10.6843L21.0944 11.276L20.4243 11.8869L19.7745 12.5167L19.1456 13.1648L18.5378 13.8311L17.9517 14.5153L17.3878 15.2168L16.8465 15.9355L16.3281 16.671L15.8332 17.4228L15.3618 18.1908L14.9147 18.9742L14.492 19.7727L14.0941 20.586L13.7215 21.4137L13.3742 22.2552L13.053 23.1099L12.7579 23.9775L12.4891 24.8577L12.247 25.7496L12.0318 26.6529L11.8436 27.5671L11.6829 28.4915L11.5495 29.4258L11.4442 30.3692L11.3668 31.3212L11.3174 32.2813L11.2961 33.2489L11.3031 34.2233L11.3386 35.2039L11.4025 36.1901L11.495 37.1814L11.616 38.1772L11.7658 39.1764L11.944 40.1791L12.1506 41.1839L12.3859 42.1906L12.6494 43.1985L12.9413 44.2067L13.2614 45.2147L13.6097 46.2218L13.986 47.2274L14.3899 48.2307L14.8215 49.2312L15.2803 50.2279L15.7663 51.2205L16.2789 52.2079L16.8181 53.1896L17.3837 54.1651L17.9752 55.1334L18.5923 56.0941L19.2345 57.0463L19.9014 57.9895L20.5927 58.9232L21.3079 59.8463L22.0468 60.7583L22.8087 61.6588L23.5931 62.5467L24.3996 63.4218L25.2274 64.2831L26.0762 65.1304L26.9455 65.963L27.8344 66.7801L28.7426 67.581L29.6694 68.3655L30.6141 69.1329L31.5761 69.8825L32.5549 70.6139L33.5494 71.3266L34.5593 72.0202L35.5837 72.694L36.622 73.3475L37.6734 73.9802L38.7373 74.592L39.8128 75.182L40.899 75.7502L41.9957 76.2962L43.1015 76.8195L44.2159 77.3195L45.338 77.7963L46.4674 78.2493L47.6027 78.6782L48.7436 79.0827L49.8892 79.4628L51.0384 79.8182L52.1909 80.1486L53.3452 80.4535L54.5013 80.7332L55.6578 80.9873L56.814 81.2157L57.9695 81.4183L59.123 81.5948L60.2739 81.7457L61.4214 81.8705L62.5649 81.969L63.7034 82.0417L64.8362 82.088L65.9623 82.1083L67.0814 82.1026L68.1926 82.0709L69.2951 82.0135L70.3881 81.9303L71.4711 81.8216L72.5431 81.6872L73.6037 81.5275L74.6521 81.3425L75.6876 81.1326L76.7095 80.898L77.7172 80.6388L78.7105 80.3554L79.6881 80.0481L80.6497 79.7169L81.5947 79.3622L82.5227 78.9844L83.4328 78.5837L84.325 78.1606L85.1981 77.7153L86.0522 77.2484L86.8867 76.7601L87.7006 76.2507L88.4943 75.7207L89.2666 75.1705L90.0175 74.6003L90.7464 74.011L91.4533 73.4026L92.1373 72.776L92.7987 72.1314L93.4365 71.4691L94.0507 70.79L94.6409 70.094L95.207 69.3822L95.7486 68.6548L96.2656 67.9122L96.7577 67.1551L97.2248 66.3841L97.6665 65.5995L98.0828 64.802L98.4732 63.9919L98.838 63.1698L99.1769 62.3364L99.4899 61.4921L99.7769 60.6378L100.038 59.7734L100.272 58.8999L100.48 58.0177L100.662 57.1273L100.818 56.2294L100.948 55.3244L101.051 54.4128L101.128 53.4954L101.179 52.5727L101.204 51.6451M5.08862 31.0239L4.71124 31.9238L4.36122 32.8375L4.03854 33.7651L3.74387 34.7058L3.47719 35.6593L3.23891 36.6245L3.02907 37.6015L2.84828 38.5892L2.69657 39.5873L2.57434 40.5951L2.48159 41.6123L2.41856 42.6378L2.38522 43.671L2.38202 44.7116L2.40874 45.7587L2.46558 46.8118L2.55275 47.8702L2.67029 48.9331L2.81816 50L2.99638 51.07L3.20494 52.1425L3.44363 53.2169L3.71245 54.2922L4.01141 55.3679L4.34049 56.4435L4.69928 57.5179L5.08798 58.5904L5.50638 59.6604L5.95385 60.7271L6.43038 61.7898L6.93597 62.8477L7.46999 63.9004L8.03241 64.9466L8.62284 65.986L9.24105 67.0177L9.8864 68.0411L10.5589 69.0552L11.2574 70.0596L11.9823 71.0533L12.7328 72.0358L13.5082 73.0064L14.3085 73.9641L15.1329 74.9087L15.9809 75.8391L16.8516 76.7547L17.7451 77.6552L18.6603 78.5395L19.5967 79.4073L20.5536 80.2575L21.5306 81.0901L22.5268 81.904L23.5416 82.6987L24.5744 83.474L25.624 84.229L26.6904 84.9632L27.7723 85.6761L28.8689 86.3674L29.9799 87.036L31.1043 87.682L32.2412 88.3049L33.39 88.9041L34.5495 89.4793L35.7192 90.03L36.8981 90.5559L38.0856 91.0566L39.2808 91.5316L40.4826 91.9808L41.6906 92.4039L42.9033 92.8005L44.1204 93.1706L45.3408 93.514L46.5638 93.8301L47.7882 94.119L49.0135 94.3803L50.2388 94.6141L51.4631 94.8201L52.6858 94.9985L53.9055 95.149L55.1221 95.2716L56.3341 95.3663L57.5413 95.433L58.7424 95.4719L59.9365 95.4825L61.1234 95.4657L62.3019 95.421L63.4712 95.3486L64.6304 95.2488L65.7792 95.1216L66.9165 94.9671L68.0416 94.7857L69.1538 94.5774L70.2524 94.3423L71.3369 94.0809L72.4064 93.7935L73.4601 93.4803L74.4978 93.1414L75.5184 92.7772L76.5215 92.3881L77.5064 91.9746L78.4727 91.5365L79.4197 91.0748L80.3469 90.5897L81.2536 90.0815L82.1398 89.5505L83.0044 88.9975L83.8472 88.4224L84.6676 87.826L85.4652 87.2089L86.2399 86.5712L86.991 85.9137L87.718 85.2367L88.421 84.5407L89.0991 83.8264L89.7523 83.0941L90.3801 82.3444L90.9823 81.5779M78.2078 14.677L77.8379 14.3622L77.4616 14.0539L77.0789 13.7517L76.6902 13.4564L76.2955 13.1675L75.8953 12.8856L75.4895 12.6108L75.0788 12.3431L74.6629 12.0826L74.2422 11.8298L73.8171 11.5847L73.3878 11.3471L72.9545 11.1176L72.5175 10.896L72.0769 10.6827L71.633 10.4776L71.1862 10.2808L70.7366 10.0927L70.2842 9.913L69.8299 9.74226L69.3735 9.58028L68.9153 9.42707L68.4554 9.28282L67.9945 9.14777L67.5327 9.02191L67.0701 8.90545L66.607 8.79817L66.1437 8.70031L65.6807 8.61184L65.2178 8.53298L64.7556 8.46354L64.2942 8.40371L63.834 8.35348L63.3749 8.3131L62.9179 8.28232L62.4625 8.26138L62.0095 8.25027L61.5588 8.24878L61.1107 8.25711L60.6658 8.27527L60.2239 8.30327L59.7856 8.34088L59.3509 8.38853L58.9204 8.4458L58.494 8.5129L58.072 8.58961L57.6549 8.67594L57.2427 8.77189L56.8356 8.87767L56.4343 8.99285L56.0385 9.11764L55.6485 9.25184L55.265 9.39544L54.8878 9.54823L54.5171 9.7102L54.1534 9.88137L53.7967 10.0617L53.4475 10.2508L53.1056 10.4491L52.7716 10.656L52.4455 10.8714L52.1278 11.0956L51.8182 11.3281L51.5171 11.5689L51.2247 11.8178L50.9414 12.0749L50.6672 12.3397L50.4022 12.6123L50.1469 12.8927L49.9011 13.1803L49.665 13.4752L49.4389 13.7774L49.2229 14.0864L49.0171 14.4022L48.8218 14.7247L48.6371 15.0535L48.463 15.3886L48.2995 15.7296L48.1472 16.0767L48.0057 16.4291L47.8753 16.787L47.7561 17.1503L47.6482 17.5185L47.5518 17.8916L47.4668 18.2689L47.3935 18.651L47.3315 19.0369L47.2813 19.4267L47.2426 19.8203L47.2159 20.2174L47.2009 20.6174L47.1977 21.0204L47.2063 21.4262L47.2268 21.8344L47.2591 22.2446L47.3031 22.6571L47.3591 23.071L47.4268 23.4864L47.5063 23.9029L47.5978 24.3204L47.7008 24.7384L47.8153 25.1568L47.9416 25.5754L48.0792 25.9941L48.2284 26.412L48.3891 26.8294L48.5611 27.2459L48.744 27.661L48.9382 28.075L49.1434 28.487L49.3594 28.897L49.5862 29.305L49.8236 29.7101L50.0714 30.1127L50.3296 30.5123L50.598 30.9085L50.8762 31.301L51.1645 31.69L51.4621 32.0748L51.7694 32.4554L52.0861 32.8313L52.4116 33.2025L52.7462 33.5687L53.0894 33.9297L53.4411 34.285L53.801 34.6346L54.1687 34.9784L54.5444 35.3159L54.9278 35.6471L55.3182 35.9715L55.7159 36.2892L56.1202 36.5999L56.5311 36.9032L56.9482 37.1991L57.3713 37.4876L57.8002 37.7682L58.2346 38.0406L58.6742 38.3052L59.1187 38.5612L59.5676 38.8086L60.0211 39.0475L60.4786 39.2777L60.9397 39.4989L61.4043 39.7108L61.8718 39.9136L62.3426 40.107L62.8155 40.291L63.291 40.4654L63.7681 40.6299L64.247 40.7848L64.7272 40.9297L65.2084 41.0648L65.6903 41.1898L66.1726 41.3043L66.6549 41.4088L67.137 41.5031L67.6184 41.587L68.0992 41.6605L68.5787 41.7238L69.0568 41.7766L69.5331 41.8187L70.0075 41.8505L70.4793 41.8717L70.9486 41.8826L71.4148 41.8828L71.8779 41.8725L72.3373 41.8518L72.7929 41.8208L73.2445 41.7794L73.6917 41.7274L74.134 41.665L74.5715 41.5926L75.004 41.5099L75.4307 41.4169L75.8519 41.3139L76.2669 41.2011L76.6759 41.0782L77.0783 40.9455L77.4738 40.803L77.8625 40.6509L78.244 40.4893L78.6179 40.3181L78.9842 40.138L79.3427 39.9485L79.6932 39.7499L80.0353 39.5427L80.3689 39.3264L80.6939 39.1016L81.01 38.8683L81.317 38.6268L81.6147 38.3772L81.9032 38.1195L82.182 37.8541L82.4513 37.581L82.7105 37.3004L82.9599 37.0128L83.1992 36.7179L83.4281 36.4159L83.6467 36.1076L83.8548 35.7926L84.0523 35.4714L84.239 35.1441L84.4149 34.8107L84.5799 34.4718L84.7339 34.1275L84.8771 33.7779L85.009 33.4232L85.1299 33.0638L85.2393 32.6997L85.3376 32.3313L85.4244 31.9588L85.5 31.5823L85.5641 31.2021L85.6171 30.8185L85.6586 30.4315L85.6885 30.0418L85.7071 29.6492L85.7141 29.2541L85.7099 28.8569L85.6943 28.4575L85.6673 28.0562L85.6289 27.6534L85.5795 27.2493L85.5186 26.8441L85.4466 26.4379L85.3635 26.0312L85.2692 25.6242L85.1639 25.2169L85.0479 24.8098L84.9209 24.4029L84.7831 23.9965L84.6348 23.5911L84.4758 23.1866L84.3064 22.7834L84.1266 22.3816L83.9367 21.9816L83.7364 21.5835L83.5264 21.1877L83.3065 20.7941L83.0768 20.4033L82.8374 20.015L82.5887 19.6301L82.3308 19.2483L82.0637 18.87L81.7874 18.4954L81.5025 18.1247L81.2089 17.7582L80.9069 17.3958L80.5967 17.0381L80.2781 16.6851L79.9518 16.337L79.6176 15.994L79.2759 15.6564L78.9269 15.3241L78.5709 14.9975L78.2078 14.677ZM73.6498 17.4786L73.859 17.6435L74.0736 17.8029L74.283 17.9643L74.477 18.135L74.6492 18.3207L74.8071 18.5171L74.9621 18.7173L75.1253 18.915L75.3038 19.1052L75.489 19.2915L75.6687 19.4787L75.8301 19.6719L75.9651 19.8749L76.0827 20.0849L76.1961 20.2984L76.319 20.5108L76.4598 20.7198L76.609 20.926L76.7519 21.1322L76.8746 21.3408L76.9671 21.5534L77.0398 21.7697L77.1077 21.9881L77.1855 22.2075L77.2834 22.4272L77.3904 22.646L77.4913 22.8638L77.5702 23.0798L77.6167 23.2941L77.6418 23.5083L77.661 23.7234L77.6907 23.9418L77.7416 24.1639L77.8024 24.3872L77.8569 24.6083L77.889 24.8239L77.8875 25.0319L77.8636 25.2355L77.8334 25.4396L77.8138 25.6482L77.8153 25.8644L77.8272 26.0839L77.8332 26.3001L77.817 26.5072L77.7672 26.7008L77.695 26.8863L77.6163 27.0709L77.5475 27.2619L77.4994 27.4641L77.4616 27.6714L77.4184 27.8746L77.3541 28.065L77.2578 28.2368L77.1396 28.3969L77.0152 28.5548L76.8996 28.7208L76.8035 28.9012L76.7171 29.0881L76.6259 29.2706L76.5156 29.4371L76.3761 29.5803L76.2164 29.7083L76.0506 29.8333L75.8925 29.9677L75.7514 30.1192L75.6194 30.2786L75.4835 30.4331L75.3311 30.569L75.1533 30.6778L74.9582 30.7686L74.7574 30.8556L74.5627 30.9526L74.3821 31.0693L74.209 31.1951L74.0334 31.3154L73.8445 31.4152L73.6353 31.4851L73.4122 31.5349L73.1837 31.58L72.9598 31.636L72.7463 31.7127L72.5388 31.7997L72.3298 31.8811L72.1117 31.9409L71.8794 31.9687L71.6366 31.9751L71.3896 31.9764L71.1449 31.9886L70.9069 32.0225L70.6729 32.0672L70.4387 32.1063L70.1998 32.1236L69.953 32.108L69.7002 32.0706L69.4446 32.0275L69.1888 31.9954L68.9354 31.9847L68.6841 31.9851L68.4334 31.9804L68.183 31.9542L67.9317 31.8958L67.6791 31.8157L67.4246 31.7298L67.1679 31.6541L66.9092 31.5994L66.6502 31.5556L66.3933 31.5071L66.1414 31.4383L65.8954 31.3392L65.6529 31.2193L65.4099 31.0936L65.1624 30.9776L64.9086 30.881L64.6522 30.7945L64.3991 30.7041L64.1555 30.5955L63.9248 30.4594L63.7021 30.3043L63.4803 30.144L63.2523 29.9918L63.0131 29.857L62.7695 29.7316L62.5304 29.6029L62.3048 29.4589L62.0986 29.2911L61.9047 29.1072L61.7128 28.9183L61.513 28.7362L61.2983 28.5687L61.0771 28.409L60.8613 28.2473L60.6628 28.0735L60.4893 27.881L60.3318 27.6752L60.1777 27.4654L60.014 27.2604L59.8322 27.0668L59.6422 26.8799L59.458 26.6918L59.2943 26.4952L59.1601 26.2854L59.0456 26.0659L58.9353 25.8435L58.8141 25.624L58.6722 25.412L58.5207 25.205L58.3754 24.9981L58.253 24.7868L58.1634 24.5679L58.0959 24.3436L58.0335 24.1171L57.9598 23.8916L57.8632 23.67L57.7559 23.4512L57.6553 23.2339L57.5784 23.0163L57.5369 22.7971L57.519 22.5766L57.507 22.3548L57.4831 22.1323L57.4356 21.9096L57.3764 21.688L57.3236 21.4688L57.2954 21.2534L57.3033 21.0425L57.3356 20.8341L57.3741 20.6258L57.4006 20.4149L57.4036 20.1999L57.3946 19.9843L57.3916 19.7719L57.4125 19.567L57.4694 19.3725L57.5501 19.1842L57.6373 18.9973L57.7134 18.806L57.7662 18.6073L57.8074 18.4058L57.854 18.2083L57.923 18.0222L58.026 17.8512L58.1521 17.6903L58.2844 17.5316L58.4064 17.3672L58.5069 17.192L58.5962 17.0125L58.6902 16.8379L58.8043 16.6772L58.9494 16.5364L59.1157 16.4086L59.2877 16.284L59.4507 16.1524L59.5945 16.0075L59.7283 15.8569L59.8657 15.7113L60.0202 15.5823L60.2016 15.4767L60.4012 15.3867L60.6064 15.3006L60.804 15.2068L60.9857 15.0974L61.1581 14.9812L61.3333 14.8703L61.5222 14.7775L61.7327 14.7108L61.9582 14.6617L62.1883 14.617L62.4131 14.564L62.6251 14.4944L62.8298 14.4166L63.036 14.3446L63.2518 14.2914L63.4835 14.2659L63.7262 14.2591L63.9726 14.2574L64.2156 14.2469L64.45 14.2191L64.6791 14.183L64.9082 14.152L65.1428 14.1403L65.3868 14.1567L65.6375 14.1922L65.8911 14.233L66.1433 14.2655L66.3912 14.2805L66.6358 14.2871L66.8792 14.2984L67.1237 14.3285L67.3707 14.386L67.6203 14.4621L67.8716 14.5437L68.1236 14.6177L68.3757 14.6749L68.6266 14.7237L68.8751 14.7771L69.1202 14.8476L69.3615 14.9438L69.6006 15.0577L69.8401 15.1769L70.0827 15.2893L70.3295 15.3865L70.5774 15.4759L70.8216 15.569L71.0584 15.6774L71.2847 15.8088L71.5046 15.956L71.7236 16.1084L71.9478 16.255L72.1801 16.3885L72.4157 16.5152L72.647 16.6447L72.8664 16.7871L73.0694 16.9486L73.262 17.1236L73.4526 17.3031L73.6498 17.4786ZM81.5596 13.0814L81.0307 12.6323L80.4926 12.1918L79.9456 11.7608L79.3898 11.339L78.8261 10.9266L78.254 10.5242L77.6745 10.1317L77.0877 9.74957L76.4936 9.37775L75.8929 9.01661L75.2859 8.66637L74.6728 8.32703L74.0539 7.99902L73.4297 7.68233L72.8004 7.37739L72.1666 7.08399L71.5283 6.80257L70.8859 6.53331L70.24 6.27603L69.5908 6.03136L68.9386 5.79907L68.2838 5.57962L67.6268 5.37276L66.9679 5.17873L66.3076 4.99773L65.646 4.82999L64.9838 4.67549L64.321 4.53424L63.6581 4.40624L62.9957 4.29192L62.3339 4.19105L61.6731 4.10387L61.0137 4.03057L60.3562 3.97095L59.7008 3.92501L59.0477 3.89317L58.3977 3.875L57.7508 3.87073L57.1076 3.88056L56.4685 3.90429L55.8336 3.9421L55.2034 3.99382L54.5784 4.05942L53.9587 4.13913L53.345 4.23273L52.7372 4.33999L52.1359 4.46138L51.5416 4.59642L50.9544 4.74537L50.3749 4.90799L49.8033 5.08428L49.2398 5.27425L48.6848 5.47747L48.139 5.69415L47.6023 5.92429L47.0751 6.16747L46.558 6.42369L46.0509 6.69294L45.5545 6.97522L45.069 7.26991L44.5946 7.57741L44.1315 7.89709L43.6802 8.22916L43.241 8.57321L42.8143 8.92921L42.4 9.29676L41.9989 9.67606L41.6106 10.0667L41.236 10.4682L40.8749 10.8808L40.5276 11.3042L40.1947 11.7377L39.8761 12.1818L39.5722 12.6357L39.2831 13.0994L39.0089 13.5725L38.7501 14.0548L38.5067 14.5461L38.2789 15.0459L38.067 15.5543L37.871 16.0705L37.6911 16.5947L37.5276 17.1264L37.3804 17.6653L37.2498 18.2109L37.1357 18.763L37.0385 19.3216L36.9581 19.8858L36.8947 20.4557L36.8483 21.0307L36.819 21.6105L36.807 22.1949L36.812 22.7834L36.8344 23.3758L36.8739 23.9713L36.9306 24.5701L37.0047 25.1714L37.0962 25.7751L37.2047 26.3807L37.3304 26.9878L37.4733 27.5961L37.6334 28.2052L37.8103 28.8146L38.0041 29.4238L38.2151 30.0328L38.4424 30.641L38.6867 31.2479L38.9474 31.8533L39.2243 32.4567L39.5175 33.0578L39.8265 33.656L40.1515 34.2511L40.4924 34.8428L40.8484 35.4302L41.2198 36.0136L41.6063 36.5921L42.0076 37.1654L42.4233 37.7334L42.8534 38.2956L43.2975 38.8514L43.7552 39.4006L44.2266 39.943L44.711 40.4778L45.2083 41.005L45.7184 41.5243L46.2404 42.035L46.7742 42.5371L47.3198 43.0301L47.8764 43.5137L48.444 43.9875L49.022 44.4512L49.6099 44.9046L50.2078 45.3474L50.8147 45.779L51.4307 46.1996L52.0551 46.6088L52.6874 47.0058L53.3277 47.3909L53.9751 47.7638L54.6293 48.1241L55.2898 48.4713L55.9563 48.8058L56.6283 49.1269L57.3053 49.4347L57.987 49.7287L58.6729 50.0088L59.3623 50.2749L60.0551 50.5268L60.7506 50.7645L61.4483 50.9875L62.1482 51.1961L62.8491 51.3897L63.551 51.5686L64.2537 51.7323L64.9561 51.881L65.658 52.0145L66.3591 52.1329L67.0588 52.2359L67.7567 52.3237L68.4525 52.396L69.1452 52.453L69.8348 52.4943L70.521 52.5203L71.2029 52.531L71.8803 52.5261L72.553 52.5058L73.2201 52.4703L73.8815 52.4195L74.5367 52.3534L75.1852 52.272L75.8265 52.1757L76.4607 52.0641L77.0868 51.9378L77.705 51.7966L78.3145 51.6408L78.9149 51.4703L79.506 51.2854L80.0875 51.0863L80.6589 50.873L81.22 50.6456L81.7703 50.4046L82.3096 50.1499L82.8377 49.8819L83.3539 49.6007L83.8582 49.3062L84.3504 48.9991L84.8299 48.6793L85.2966 48.3472L85.7503 48.0029L86.1907 47.6469L86.6176 47.2792L87.0307 46.8999L87.4297 46.5097L87.8145 46.1086L88.1848 45.6968L88.5404 45.2747L88.8815 44.8424L89.2073 44.4007L89.5183 43.9494L89.8138 43.4889L90.094 43.0197L90.3585 42.5419L90.6072 42.0557L90.8404 41.5614L91.0575 41.0599L91.2586 40.5509L91.4436 40.0348L91.6126 39.5124L91.7652 38.9833L91.9016 38.4484L92.0216 37.9076L92.1253 37.3616L92.2127 36.8105L92.2836 36.2549L92.3383 35.6948L92.3766 35.1309L92.3984 34.5631L92.4039 33.9921L92.393 33.4179L92.3659 32.8412L92.3225 32.2623L92.2629 31.6813L92.1875 31.0987L92.0958 30.5147L91.9883 29.9298L91.8648 29.3443L91.7255 28.7586L91.5708 28.1727L91.4002 27.5874L91.2146 27.0027L91.0137 26.4191L90.7976 25.8368L90.5664 25.2562L90.3204 24.6775L90.0598 24.1014L89.7847 23.5279L89.4954 22.9571L89.1917 22.39L88.8744 21.8263L88.5432 21.2664L88.1985 20.7108L87.8404 20.1597L87.4692 19.6135L87.0852 19.0725L86.6884 18.5367L86.2791 18.0068L85.858 17.4826L85.4246 16.9648L84.9797 16.4537L84.5233 15.9494L84.0555 15.4521L83.577 14.9621L83.0879 14.48L82.5883 14.0056L82.0788 13.5394L81.5596 13.0814ZM83.6132 13.0248L82.951 12.4626L82.2772 11.9117L81.5926 11.3723L80.897 10.8445L80.1914 10.3289L79.4758 9.82521L78.7505 9.33437L78.0163 8.85613L77.273 8.39114L76.5215 7.93918L75.7621 7.50112L74.9951 7.07652L74.2209 6.66602L73.4399 6.26983L72.6526 5.88797L71.8594 5.52064L71.0606 5.16826L70.2569 4.83105L69.4486 4.50903L68.6359 4.20238L67.8194 3.91112L66.9997 3.63589L66.1769 3.37625L65.3519 3.13286L64.5247 2.90571L63.6958 2.69501L62.8658 2.50055L62.0352 2.32297L61.2044 2.16185L60.3736 2.01761L59.5436 1.89025L58.7145 1.77999L57.8871 1.68682L57.0616 1.61095L56.2386 1.55219L55.4185 1.51074L54.6018 1.4868L53.7889 1.48018L52.9801 1.49086L52.1762 1.51907L51.3772 1.5648L50.584 1.62805L49.797 1.70883L49.0163 1.80691L48.2426 1.92273L47.4763 2.05586L46.7177 2.2063L45.9676 2.37405L45.2261 2.55932L44.4938 2.76168L43.7711 2.98136L43.0586 3.21812L42.3562 3.47177L41.665 3.7423L40.985 4.02972L40.3166 4.3338L39.6605 4.65433L39.0169 4.99132L38.3863 5.34456L37.769 5.71381L37.1655 6.0991L36.5759 6.49998L36.0009 6.91646L35.4408 7.34833L34.8961 7.79537L34.3668 8.25716L33.8537 8.7339L33.3569 9.22496L32.8767 9.73033L32.4135 10.2494L31.9675 10.7823L31.5392 11.3285L31.129 11.888L30.737 12.4602L30.3635 13.0449L30.009 13.6419L29.6735 14.2507L29.3573 14.8709L29.0606 15.5025L28.7837 16.1447L28.5271 16.7975L28.2907 17.4604L28.0749 18.1331L27.8798 18.8152L27.7054 19.506L27.5522 20.2054L27.4201 20.913L27.3092 21.6282L27.2201 22.3507L27.1524 23.08L27.1064 23.8157L27.0823 24.5575L27.08 25.3047L27.0996 26.0569L27.1411 26.8138L27.2045 27.5745L27.29 28.3391L27.3975 29.1069L27.5272 29.8771L27.6787 30.6496L27.8522 31.4238L28.0475 32.199L28.2647 32.9751L28.5034 33.7513L28.7636 34.527L29.0455 35.302L29.3487 36.0756L29.6731 36.8472L30.0186 37.6165L30.3847 38.383L30.7714 39.1461L31.1787 39.9051L31.6061 40.6599L32.0534 41.4095L32.5205 42.1538L33.0069 42.8923L33.5122 43.6242L34.0364 44.349L34.5792 45.0666L35.1399 45.7761L35.7184 46.4772L36.3144 47.1695L36.9275 47.8523L37.5572 48.5252L38.203 49.1878L38.8646 49.8398L39.5415 50.4804L40.2334 51.1096L40.9399 51.7263L41.6603 52.3308L42.3943 52.9221L43.1411 53.5001L43.9006 54.0645L44.6722 54.6147L45.4552 55.1504L46.2493 55.6712L47.0536 56.1768L47.868 56.6668L48.6915 57.1407L49.5241 57.5987L50.3647 58.04L51.2131 58.4643L52.0685 58.8719L52.9303 59.2618L53.7981 59.6341L54.6712 59.9886L55.5491 60.3247L56.431 60.6427L57.3165 60.9421L58.2048 61.2229L59.0955 61.4846L59.9878 61.7274L60.8815 61.9511L61.7754 62.1552L62.6694 62.34L63.5627 62.5052L64.4546 62.6507L65.3446 62.7768L66.2323 62.883L67.117 62.9694L67.9978 63.036L68.8744 63.0826L69.7462 63.1096L70.6127 63.1166L71.4733 63.1038L72.3274 63.0713L73.1745 63.0194L74.0138 62.9476L74.8451 62.8563L75.6678 62.7456L76.4811 62.6155L77.285 62.4663L78.0784 62.2982L78.8614 62.1112L79.6333 61.9054L80.3934 61.681L81.1413 61.4383L81.8766 61.1776L82.5991 60.8987L83.3081 60.6021L84.0032 60.2882L84.684 59.957L85.3503 59.6089L86.0017 59.2441L86.6374 58.8627L87.2573 58.4652L87.8612 58.0519L88.4486 57.623L89.0194 57.179L89.5731 56.72L90.1094 56.2465L90.6281 55.7588L91.1285 55.2571L91.611 54.7417L92.0752 54.2132L92.5205 53.6719L92.9468 53.1182L93.3543 52.5524L93.7426 51.9748L94.1112 51.3859L94.4604 50.7862L94.7897 50.1759L95.0989 49.5554L95.3882 48.925L95.6575 48.2856L95.9064 47.6371L96.1351 46.9802L96.3432 46.315L96.531 45.6423L96.6982 44.9623L96.8447 44.2755L96.9706 43.5821L97.0759 42.8829L97.1608 42.1781L97.2249 41.4681L97.2685 40.7535L97.2916 40.0344L97.2939 39.3117L97.276 38.5854L97.2375 37.856L97.1787 37.1242L97.0999 36.3901L97.0007 35.6544L96.8817 34.9172L96.7428 34.1793L96.584 33.4408L96.4054 32.7023L96.2075 31.964L95.9902 31.2265L95.7536 30.4901L95.4983 29.7555L95.2239 29.0227L94.9311 28.2923L94.6196 27.5649L94.2901 26.8405L93.9424 26.1197L93.577 25.4028L93.1942 24.6904L92.794 23.9826L92.3769 23.2798L91.9429 22.5827L91.4922 21.8915L91.0253 21.2064L90.5426 20.5279L90.044 19.8563L89.5301 19.1919L89.0012 18.5352L88.4574 17.8867L87.8992 17.2463L87.3267 16.6146L86.7404 15.9921L86.1408 15.3786L85.5277 14.7749L84.9018 14.1813L84.2635 13.5977L83.6132 13.0248Z" stroke="url(#paint0_angular_30_93)" stroke-width="1.19531" stroke-linecap="round" stroke-linejoin="round"/>
</g>
<defs>
<radialGradient id="paint0_angular_30_93" cx="0" cy="0" r="1" gradientUnits="userSpaceOnUse" gradientTransform="translate(51.0002 51.2641) rotate(90) scale(50.2641 50.2033)">
<stop offset="0.0993526" stop-color="#FFC875"/>
<stop offset="0.427081" stop-color="#79FFF6"/>
<stop offset="0.718753" stop-color="#00377D"/>
<stop offset="1" stop-color="#009ED1"/>
</radialGradient>
</defs>
</svg>
