<svg width="155" height="71" viewBox="0 0 155 71" fill="none" xmlns="http://www.w3.org/2000/svg">
<path d="M36.2569 28.6129L20.3049 33.4062L19.8035 32.9556L16.3327 29.8582L1.93359 26.2329L12.0863 25.1903L25.3436 23.8356L36.2569 28.6129Z" fill="white"/>
<path d="M23.0916 28.7377L19.8035 32.9551L16.3327 29.8577L1.93359 26.2324L12.0863 25.1897L23.0916 28.7377Z" fill="#4E8EF7"/>
<path d="M58.9942 10.4289C58.9942 11.8036 58.4635 12.9849 57.7035 13.5289L57.6875 13.537C57.4142 13.7303 57.1022 13.8476 56.7755 13.8476L56.6848 13.8316C55.8408 14.057 54.5195 14.3836 52.8475 14.6703C49.8609 15.1836 44.6782 14.6703 44.6782 14.6703L43.9862 9.75297L43.8809 8.99962C43.8809 8.99962 47.0342 7.60096 50.7955 7.0103C54.5489 6.41963 56.7755 7.0103 56.7755 7.0103C57.4902 7.0103 58.1209 7.52228 58.5235 8.33028C58.8209 8.91295 58.9942 9.64362 58.9942 10.4289Z" fill="#090EDA"/>
<path d="M58.9942 10.4289C58.9942 11.8036 58.4635 12.9849 57.7035 13.5289L57.6875 13.537C57.4142 13.7303 57.1022 13.8476 56.7755 13.8476L56.6848 13.8316C55.8408 14.057 54.5195 14.3836 52.8475 14.6703C49.8609 15.1836 44.6782 14.6703 44.6782 14.6703L43.9862 9.75297L43.8809 8.99962C43.8809 8.99962 47.0342 7.60096 50.7955 7.0103C54.5489 6.41963 56.7755 7.0103 56.7755 7.0103C57.4902 7.0103 58.1209 7.52228 58.5235 8.33028C58.8209 8.91295 58.9942 9.64362 58.9942 10.4289Z" fill="#27AACD"/>
<path d="M46.6046 11.7006C46.6046 13.3406 45.7432 14.6699 44.6806 14.6699C43.6166 14.6699 42.7539 13.3406 42.7539 11.7006C42.7539 10.0619 43.6166 8.73258 44.6806 8.73258C45.7432 8.73258 46.6046 10.0619 46.6046 11.7006Z" fill="#090EDA"/>
<path d="M46.6046 11.7006C46.6046 13.3406 45.7432 14.6699 44.6806 14.6699C43.6166 14.6699 42.7539 13.3406 42.7539 11.7006C42.7539 10.0619 43.6166 8.73258 44.6806 8.73258C45.7432 8.73258 46.6046 10.0619 46.6046 11.7006Z" fill="#27AACD"/>
<path d="M44.6805 14.0234C43.8485 14.0234 43.1738 12.9834 43.1738 11.7007C43.1738 10.4181 43.8485 9.37943 44.6805 9.37943C45.5112 9.37943 46.1858 10.4181 46.1858 11.7007C46.1858 12.9834 45.5112 14.0234 44.6805 14.0234Z" fill="#25B270"/>
<path d="M49.4017 14.8984C46.9804 14.8984 44.6777 14.6704 44.6777 14.6704C45.7417 14.6704 46.6071 13.3424 46.6071 11.7038C46.6071 11.2838 46.5471 10.8718 46.4484 10.5064C47.8764 11.0611 49.5657 11.7104 51.4364 11.7104C51.5417 11.7104 51.6471 11.7078 51.7537 11.7038L55.6764 14.0878C54.9124 14.2718 53.9564 14.4798 52.8471 14.6704C51.8511 14.8424 50.6111 14.8984 49.4017 14.8984Z" fill="#4E8EF7"/>
<path d="M104.828 18.5432L82.2869 22.4499L80.4442 22.7765L67.2776 25.0632L65.1922 25.4219L62.8189 22.2152L57.7349 15.3379L42.8789 6.31253L46.8816 5.84587L48.5256 5.65918L51.9656 5.26986L76.0762 10.0618L79.5762 11.0898L97.4922 16.3805L104.828 18.5432Z" fill="white"/>
<path d="M85.4976 28.2233L75.8629 30.5566L68.6322 25.9193H68.6176L67.2776 25.0633L62.8189 22.2153L57.7349 15.338L42.8789 6.31266L46.8816 5.84599L48.5256 5.65931L70.9162 13.1433L71.7989 13.4393L80.4442 22.7767L80.5669 22.9167L85.4976 28.2233Z" fill="#4E8EF7"/>
<path d="M73.28 15.0391L71.7987 13.4404L70.916 13.1444C74.736 13.0204 77.9173 12.211 79.576 11.091L86.9027 13.2537C82.2627 13.8524 77.6653 14.4564 73.28 15.0391Z" fill="#040606"/>
<path d="M58.9402 16.9688L57.7349 15.3381L55.6762 14.0874L51.7536 11.7034L42.8789 6.31276L46.8816 5.84609C47.9322 6.39009 49.1349 7.16877 50.5656 8.05544C53.6562 9.98477 61.5402 12.9728 69.0896 13.1434C69.4016 13.1514 69.7096 13.1554 70.0136 13.1554C70.3189 13.1554 70.6189 13.1514 70.9162 13.1434L71.7989 13.4394L73.2802 15.0381C68.1096 15.7261 63.2349 16.3834 58.9402 16.9688Z" fill="#1A5497"/>
<path d="M154.129 20.3659C154.129 21.4086 153.84 22.3113 153.368 23.0886C151.465 26.2953 146.61 27.5393 146.153 27.5393C146.077 27.5393 144.646 27.7259 142.165 28.0846C140.613 28.2859 138.634 28.5659 136.336 28.8779C112.454 32.1926 53.305 40.5019 53.305 40.5019C53.305 40.5019 28.997 42.4632 17.4134 37.5299C16.3175 37.0472 15.2978 36.4566 14.3546 35.7406L14.217 35.6473L14.0494 35.4912L13.8973 35.3833C13.5478 35.1179 13.2123 34.8379 12.9082 34.5419L12.8165 34.4646C11.7665 33.3446 11.4165 31.9286 13.0451 30.1846C13.1665 30.0606 13.2883 29.9366 13.4103 29.8113L13.5478 29.6873C15.0541 28.5353 21.3863 26.3099 28.0383 24.1473C36.0743 21.5633 44.5677 19.0899 45.4957 18.8259L45.5877 18.8099C61.433 16.5993 124.357 7.94726 136.29 7.94726C136.793 7.94726 137.294 7.96326 137.766 8.00993C141.465 8.24326 144.418 9.44193 146.701 10.9819C149.41 12.7873 151.268 15.1059 152.425 16.9579C153.642 18.8872 154.129 20.3659 154.129 20.3659Z" fill="white"/>
<path d="M153.368 23.0886C151.465 26.2953 146.61 27.5393 146.153 27.5393C146.077 27.5393 144.646 27.7259 142.165 28.0846C140.613 28.2859 138.634 28.5659 136.336 28.8779C112.454 32.1926 53.305 40.5019 53.305 40.5019C53.305 40.5019 28.997 42.4632 17.4134 37.5299C16.2722 37.0312 15.2066 36.3939 14.217 35.6473L14.0494 35.4912L13.8973 35.3833C13.5478 35.1179 13.2123 34.8379 12.9082 34.5419L12.8165 34.4646C11.7665 33.3446 11.4165 31.9286 13.0451 30.1846C13.1665 30.0606 13.2883 29.9366 13.4103 29.8113L13.5478 29.6873C17.6113 25.6099 23.273 24.3646 28.0383 24.1473C33.061 23.9139 37.049 24.8473 37.049 24.8473C37.049 24.8473 38.829 26.1553 36.257 28.6126C33.6997 31.0873 26.653 30.8232 27.9157 33.1579C28.565 34.3566 29.821 34.2539 32.6757 34.1499C35.3783 34.0526 39.513 33.9552 45.9223 34.9619C59.1197 37.0472 116.457 29.0019 136.746 26.4033C145.681 25.2673 150.674 24.2713 153.368 23.0886Z" fill="#090EDA"/>
<path d="M153.368 23.0886C151.465 26.2953 146.61 27.5393 146.153 27.5393C146.077 27.5393 144.646 27.7259 142.165 28.0846C140.613 28.2859 138.634 28.5659 136.336 28.8779C112.454 32.1926 53.305 40.5019 53.305 40.5019C53.305 40.5019 28.997 42.4632 17.4134 37.5299C16.2722 37.0312 15.2066 36.3939 14.217 35.6473L14.0494 35.4912L13.8973 35.3833C13.5478 35.1179 13.2123 34.8379 12.9082 34.5419L12.8165 34.4646C11.7665 33.3446 11.4165 31.9286 13.0451 30.1846C13.1665 30.0606 13.2883 29.9366 13.4103 29.8113L13.5478 29.6873C17.6113 25.6099 23.273 24.3646 28.0383 24.1473C33.061 23.9139 37.049 24.8473 37.049 24.8473C37.049 24.8473 38.829 26.1553 36.257 28.6126C33.6997 31.0873 26.653 30.8232 27.9157 33.1579C28.565 34.3566 29.821 34.2539 32.6757 34.1499C35.3783 34.0526 39.513 33.9552 45.9223 34.9619C59.1197 37.0472 116.457 29.0019 136.746 26.4033C145.681 25.2673 150.674 24.2713 153.368 23.0886Z" fill="#27AACD"/>
<path d="M142.744 22.7303C142.576 25.7169 142.257 27.6316 142.165 28.0836C140.613 28.285 138.634 28.565 136.336 28.877C136.777 27.6156 138.345 22.4343 136.213 16.9569L141.541 16.5836C141.541 16.5836 142.926 19.2756 142.744 22.7303Z" fill="white"/>
<path d="M142.744 22.731L142.577 22.7216C142.411 25.7003 142.092 27.611 142.003 28.051L142.165 28.0843L142.144 27.919C140.591 28.1203 138.612 28.4003 136.313 28.7123L136.336 28.8776L136.493 28.9323C136.769 28.1456 137.472 25.867 137.472 22.939C137.472 21.1096 137.197 19.0256 136.369 16.8963L136.213 16.9576L136.225 17.123L141.553 16.751L141.541 16.5843L141.393 16.6603C141.393 16.6603 141.467 16.8016 141.579 17.0683C141.916 17.8683 142.595 19.7723 142.593 22.0976C142.593 22.303 142.588 22.511 142.577 22.7216L142.744 22.731L142.911 22.739C142.921 22.523 142.927 22.3083 142.927 22.0976C142.927 18.9096 141.696 16.5216 141.689 16.5083L141.529 16.4176L136.203 16.791L136.073 16.8683L136.059 17.0176C136.869 19.1016 137.139 21.143 137.139 22.939C137.14 25.8136 136.447 28.0576 136.179 28.823L136.207 28.983L136.359 29.043C138.657 28.731 140.636 28.451 142.187 28.2496L142.329 28.1176C142.423 27.6536 142.743 25.7363 142.911 22.7403L142.744 22.731Z" fill="#F1EEFD"/>
<path d="M37.4756 30.7923L35.9076 39.2256L28.8916 49.8856L20.4743 52.2669L16.334 53.4336C16.334 53.4336 21.3569 43.9883 21.7076 40.4869C21.8743 38.6963 20.3063 33.4056 20.3063 33.4056L26.8369 32.4096L37.4756 30.7923Z" fill="white"/>
<path d="M29.6983 39.6309L20.4743 52.2669L16.334 53.4336C16.334 53.4336 21.3569 43.9883 21.7076 40.4869C21.8743 38.6963 20.3062 33.4056 20.3062 33.4056L26.8369 32.4096L29.6983 39.6309Z" fill="#4E8EF7"/>
<path d="M42.8717 6.31445L39.2051 1.18512L45.3811 -0.000227451L51.9691 5.26644L42.8717 6.31445Z" fill="#090EDA"/>
<path d="M42.8717 6.31445L39.2051 1.18512L45.3811 -0.000227451L51.9691 5.26644L42.8717 6.31445Z" fill="#27AACD"/>
<path d="M152.428 16.9609C150.228 19.1076 146.556 18.7183 145.35 17.7556C144.108 16.7743 145.895 14.1196 146.706 10.9743C149.418 12.7836 151.27 15.1009 152.428 16.9609Z" fill="#090EDA"/>
<path d="M152.428 16.9609C150.228 19.1076 146.556 18.7183 145.35 17.7556C144.108 16.7743 145.895 14.1196 146.706 10.9743C149.418 12.7836 151.27 15.1009 152.428 16.9609Z" fill="#27AACD"/>
<path d="M47.7327 35.166C47.0607 35.114 46.4567 35.046 45.9234 34.962C42.1834 34.3753 39.218 34.1634 36.8594 34.1087L37.434 31.018C46.5207 29.9047 57.79 28.5967 71.3127 26.6527C96.8687 22.9647 139.411 16.646 139.578 11.0447C139.625 9.53536 138.925 8.58603 137.767 8.01003C141.466 8.24336 144.419 9.44203 146.702 10.982L146.703 10.9834C145.893 14.1247 144.11 16.7754 145.35 17.7567C145.913 18.206 147.013 18.53 148.25 18.53C149.663 18.53 151.255 18.1073 152.429 16.962C153.643 18.89 154.13 20.366 154.13 20.366C154.13 21.4087 153.841 22.3114 153.369 23.0887C151.342 23.9794 148.014 24.7634 142.683 25.5807C142.767 24.7914 142.85 23.838 142.911 22.7407L142.745 22.7313L142.911 22.7394C142.922 22.5234 142.927 22.3087 142.927 22.098C142.927 18.91 141.697 16.522 141.69 16.5087L141.53 16.418L136.203 16.7913L136.074 16.8687L136.059 17.018C136.87 19.102 137.139 21.1434 137.139 22.9394C137.139 24.2487 136.997 25.4273 136.814 26.3953C136.793 26.398 136.77 26.4007 136.747 26.4034C133.766 26.786 129.985 27.2847 125.659 27.8527L123.307 25.4234C123.307 25.4234 121.679 25.2367 119.229 25.05C116.354 24.814 112.363 24.554 108.607 24.554C106.179 24.554 103.849 24.6634 101.983 24.9567C101.206 25.0807 100.506 25.2367 99.9287 25.4234C94.494 27.15 81.374 32.0994 78.9687 32.986L78.5887 33.142L79.3447 33.4394C78.6007 33.514 77.862 33.5887 77.1274 33.6607C76.3194 32.0927 75.0767 31.1034 73.6714 31.1034C73.6714 31.1034 71.69 30.578 68.1407 30.578C66.366 30.578 64.1994 30.7087 61.6927 31.1034C56.162 31.9714 51.2874 33.7114 49.086 34.5754C48.6034 34.6447 48.1474 34.85 47.7327 35.166Z" fill="#040606"/>
<path d="M42.2195 40.8867C39.9435 40.8867 37.4662 40.836 34.9355 40.7L35.9062 39.2254L36.8582 34.108C39.2169 34.1627 42.1822 34.3747 45.9222 34.9614C46.4555 35.0454 47.0596 35.1134 47.7316 35.1654C46.4609 36.1374 45.5862 38.1587 45.5862 40.496C45.5862 40.6147 45.5889 40.7334 45.5929 40.8507C44.5382 40.872 43.4062 40.8867 42.2195 40.8867ZM78.0742 37.0254C77.9662 35.8067 77.6462 34.6827 77.1715 33.748C77.1569 33.7187 77.1422 33.6894 77.1262 33.66C77.8609 33.588 78.5996 33.5134 79.3436 33.4387L85.7369 35.9507C83.1049 36.32 80.5355 36.68 78.0742 37.0254ZM127.8 30.0654L125.658 27.8521C129.984 27.2841 133.765 26.7854 136.746 26.4027C136.769 26.4 136.792 26.3974 136.813 26.3947C136.596 27.5507 136.325 28.4067 136.178 28.8227L136.192 28.8974C133.73 29.2387 130.897 29.6334 127.8 30.0654ZM142.34 28.0587C142.406 27.7187 142.546 26.8654 142.682 25.58C148.013 24.7627 151.341 23.9787 153.368 23.0881C151.465 26.2947 146.61 27.5387 146.153 27.5387C146.078 27.5387 144.714 27.7174 142.34 28.0587Z" fill="#090EDA"/>
<path d="M42.2195 40.8867C39.9435 40.8867 37.4662 40.836 34.9355 40.7L35.9062 39.2254L36.8582 34.108C39.2169 34.1627 42.1822 34.3747 45.9222 34.9614C46.4555 35.0454 47.0596 35.1134 47.7316 35.1654C46.4609 36.1374 45.5862 38.1587 45.5862 40.496C45.5862 40.6147 45.5889 40.7334 45.5929 40.8507C44.5382 40.872 43.4062 40.8867 42.2195 40.8867ZM78.0742 37.0254C77.9662 35.8067 77.6462 34.6827 77.1715 33.748C77.1569 33.7187 77.1422 33.6894 77.1262 33.66C77.8609 33.588 78.5996 33.5134 79.3436 33.4387L85.7369 35.9507C83.1049 36.32 80.5355 36.68 78.0742 37.0254ZM127.8 30.0654L125.658 27.8521C129.984 27.2841 133.765 26.7854 136.746 26.4027C136.769 26.4 136.792 26.3974 136.813 26.3947C136.596 27.5507 136.325 28.4067 136.178 28.8227L136.192 28.8974C133.73 29.2387 130.897 29.6334 127.8 30.0654ZM142.34 28.0587C142.406 27.7187 142.546 26.8654 142.682 25.58C148.013 24.7627 151.341 23.9787 153.368 23.0881C151.465 26.2947 146.61 27.5387 146.153 27.5387C146.078 27.5387 144.714 27.7174 142.34 28.0587Z" fill="#27AACD"/>
<path d="M136.58 28.6758C136.893 27.7171 137.472 25.5958 137.472 22.9384C137.472 21.1691 137.215 19.1624 136.449 17.1078L141.441 16.7571C141.473 16.8264 141.52 16.9304 141.579 17.0678C141.916 17.8678 142.595 19.7718 142.593 22.0971C142.593 22.3024 142.588 22.5105 142.577 22.7211C142.423 25.4865 142.136 27.3318 142.025 27.9344C140.551 28.1264 138.707 28.3864 136.58 28.6758Z" fill="#040606"/>
<path d="M136.192 28.8965L136.179 28.8218C136.325 28.4058 136.596 27.5498 136.813 26.3938C136.996 25.4258 137.139 24.2472 137.139 22.9378C137.139 21.1418 136.869 19.1005 136.059 17.0165L136.073 16.8672L136.203 16.7898L141.529 16.4165L141.689 16.5072C141.696 16.5205 142.927 18.9085 142.927 22.0965C142.927 22.3072 142.921 22.5218 142.911 22.7378L142.744 22.7298L142.911 22.7392C142.849 23.8365 142.767 24.7898 142.683 25.5792C142.547 26.8645 142.407 27.7178 142.34 28.0578C142.283 28.0658 142.224 28.0752 142.165 28.0832C140.613 28.2845 138.635 28.5645 136.336 28.8765C136.288 28.8832 136.24 28.8898 136.192 28.8965ZM136.449 17.1072C137.215 19.1618 137.472 21.1685 137.472 22.9378C137.472 25.5952 136.893 27.7165 136.58 28.6752C138.707 28.3858 140.551 28.1258 142.025 27.9338C142.136 27.3312 142.423 25.4858 142.577 22.7205C142.588 22.5098 142.593 22.3018 142.593 22.0965C142.595 19.7712 141.916 17.8672 141.579 17.0672C141.52 16.9298 141.473 16.8258 141.441 16.7565L136.449 17.1072Z" fill="#F7F9FF"/>
<path d="M16.2657 36.9688C15.9078 36.7754 15.5583 36.5688 15.2188 36.3488C15.5594 36.5688 15.9083 36.7754 16.2657 36.9688Z" fill="#040606"/>
<path d="M21.6032 38.9062C20.0877 38.5209 18.6757 38.0662 17.4143 37.5289C17.0221 37.3556 16.6397 37.1689 16.2669 36.9676C15.9096 36.7742 15.5607 36.5676 15.22 36.3476C14.9247 36.1556 14.6367 35.9529 14.3555 35.7396C15.3747 34.8529 16.6992 34.1836 18.3279 33.8409C18.9607 33.7063 19.6236 33.5743 20.3179 33.4449C20.4272 33.8196 21.2872 36.7863 21.6032 38.9062Z" fill="#090EDA"/>
<path d="M21.6032 38.9062C20.0877 38.5209 18.6757 38.0662 17.4143 37.5289C17.0221 37.3556 16.6397 37.1689 16.2669 36.9676C15.9096 36.7742 15.5607 36.5676 15.22 36.3476C14.9247 36.1556 14.6367 35.9529 14.3555 35.7396C15.3747 34.8529 16.6992 34.1836 18.3279 33.8409C18.9607 33.7063 19.6236 33.5743 20.3179 33.4449C20.4272 33.8196 21.2872 36.7863 21.6032 38.9062Z" fill="#27AACD"/>
<path d="M27.873 32.252C27.8744 32.2506 27.8757 32.2493 27.8757 32.2479C27.961 32.2359 28.049 32.2239 28.1344 32.2119L27.873 32.252Z" fill="#040606"/>
<path d="M21.873 33.166C23.6877 32.854 25.6864 32.5514 27.8757 32.2474C27.8757 32.2487 27.8744 32.25 27.873 32.2514L26.837 32.4087L21.873 33.166Z" fill="#090EDA"/>
<path d="M21.873 33.166C23.6877 32.854 25.6864 32.5514 27.8757 32.2474C27.8757 32.2487 27.8744 32.25 27.873 32.2514L26.837 32.4087L21.873 33.166Z" fill="#27AACD"/>
<path d="M34.937 40.6992C33.0504 40.5979 31.1357 40.4486 29.2544 40.2379L29.6984 39.6299L26.837 32.4086L27.873 32.2512L28.1344 32.2112C30.9317 31.8246 34.029 31.4352 37.4344 31.0166L36.8597 34.1072L35.9077 39.2245L34.937 40.6992Z" fill="#040606"/>
<path d="M29.2544 40.2383C26.5744 39.9356 23.9637 39.5063 21.6037 38.9063C21.2877 36.7863 20.4277 33.8196 20.3184 33.445C20.8197 33.3503 21.3384 33.2583 21.873 33.1663L26.837 32.409L29.6984 39.6303L29.2544 40.2383Z" fill="#1A5497"/>
<path d="M148.25 18.5293C147.012 18.5293 145.912 18.2053 145.35 17.756C144.11 16.7747 145.892 14.124 146.703 10.9827C149.411 12.7867 151.268 15.1053 152.426 16.9573C152.426 16.9586 152.427 16.96 152.428 16.9613C151.255 18.1066 149.663 18.5293 148.25 18.5293Z" fill="#1A5497"/>
<path d="M142.615 61.1009C142.615 62.9849 141.886 64.6022 140.846 65.3476L140.825 65.3582C140.45 65.6249 140.023 65.7836 139.575 65.7836L139.45 65.7622C138.295 66.0716 136.483 66.5182 134.193 66.9129C130.102 67.6142 123.002 66.9129 123.002 66.9129L122.055 60.1756L121.91 59.1422C121.91 59.1422 126.23 57.2262 131.383 56.4182C136.525 55.6089 139.575 56.4182 139.575 56.4182C140.554 56.4182 141.418 57.1209 141.97 58.2276C142.377 59.0262 142.615 60.0262 142.615 61.1009Z" fill="#090EDA"/>
<path d="M142.615 61.1009C142.615 62.9849 141.886 64.6022 140.846 65.3476L140.825 65.3582C140.45 65.6249 140.023 65.7836 139.575 65.7836L139.45 65.7622C138.295 66.0716 136.483 66.5182 134.193 66.9129C130.102 67.6142 123.002 66.9129 123.002 66.9129L122.055 60.1756L121.91 59.1422C121.91 59.1422 126.23 57.2262 131.383 56.4182C136.525 55.6089 139.575 56.4182 139.575 56.4182C140.554 56.4182 141.418 57.1209 141.97 58.2276C142.377 59.0262 142.615 60.0262 142.615 61.1009Z" fill="#27AACD"/>
<path d="M125.643 62.8435C125.643 65.0902 124.462 66.9102 123.005 66.9102C121.549 66.9102 120.367 65.0902 120.367 62.8435C120.367 60.5982 121.549 58.7768 123.005 58.7768C124.462 58.7768 125.643 60.5982 125.643 62.8435Z" fill="#090EDA"/>
<path d="M125.643 62.8435C125.643 65.0902 124.462 66.9102 123.005 66.9102C121.549 66.9102 120.367 65.0902 120.367 62.8435C120.367 60.5982 121.549 58.7768 123.005 58.7768C124.462 58.7768 125.643 60.5982 125.643 62.8435Z" fill="#27AACD"/>
<path d="M123.004 66.0234C121.865 66.0234 120.941 64.5995 120.941 62.8421C120.941 61.0848 121.865 59.6608 123.004 59.6608C124.144 59.6608 125.068 61.0848 125.068 62.8421C125.068 64.5995 124.144 66.0234 123.004 66.0234Z" fill="#25B270"/>
<path d="M129.474 67.2246C126.158 67.2246 123.002 66.9126 123.002 66.9126C124.461 66.9126 125.646 65.0913 125.646 62.846C125.646 62.2713 125.563 61.7073 125.429 61.2073C127.221 61.9033 129.315 62.7086 131.626 62.838L136.203 66.5313C135.583 66.6593 134.911 66.7886 134.193 66.9126C132.83 67.146 131.131 67.2246 129.474 67.2246Z" fill="#4E8EF7"/>
<path d="M152.637 67.2992L146.976 68.9645V68.9792L141.297 70.6445L110.232 45.5752L78.5879 33.1419L78.9679 32.9859C81.3732 32.0992 94.4932 27.1499 99.9279 25.4232C100.505 25.2365 101.205 25.0805 101.983 24.9565C106.731 24.2099 114.493 24.6605 119.228 25.0499C121.679 25.2365 123.307 25.4232 123.307 25.4232L133.399 35.8499L144.144 53.4179L152.637 67.2992Z" fill="white"/>
<path d="M146.976 68.9645V68.9792L141.297 70.6445L110.232 45.5752L78.5879 33.1419L78.9679 32.9859C81.3732 32.0992 94.4932 27.1499 99.9279 25.4232C100.505 25.2365 101.205 25.0805 101.983 24.9565L104.585 26.7618L119.851 37.2965L130.811 50.1045L146.976 68.9645Z" fill="#4E8EF7"/>
<path d="M146.976 68.9648L130.81 50.1048C135.706 52.0502 140.518 53.4288 143.7 53.4288C143.852 53.4288 144 53.4249 144.144 53.4182L152.637 67.2995L146.976 68.9648ZM104.585 26.7622L101.982 24.9569C103.848 24.6635 106.178 24.5542 108.606 24.5542C112.362 24.5542 116.353 24.8142 119.228 25.0502C113.764 25.3609 106.533 25.9368 104.585 26.7622Z" fill="#040606"/>
<path d="M141.297 70.6445L136.203 66.5325L131.625 62.8392L113.967 48.5885L112.967 47.7819L110.232 45.5752L85.7372 35.9512L79.3439 33.4392L78.5879 33.1419L78.9679 32.9859C81.3732 32.0992 94.4932 27.1499 99.9279 25.4232C100.505 25.2365 101.205 25.0805 101.983 24.9565L104.585 26.7618L104.417 26.8232C101.677 28.2245 107.675 36.6432 116.26 42.6032C119.715 45.0152 125.316 47.9099 130.811 50.1045L146.976 68.9645V68.9792L141.297 70.6445Z" fill="#1A5497"/>
<path d="M141.303 70.6406L143.059 64.9246L148.444 63.7353L152.651 67.2913L141.303 70.6406Z" fill="#090EDA"/>
<path d="M141.303 70.6406L143.059 64.9246L148.444 63.7353L152.651 67.2913L141.303 70.6406Z" fill="#27AACD"/>
<path d="M78.1165 37.9495C78.1165 40.7041 77.0498 43.0694 75.5285 44.1588L75.4978 44.1748C74.9498 44.5628 74.3258 44.7974 73.6711 44.7974L73.4885 44.7654C71.7991 45.2174 69.1511 45.8708 65.8018 46.4455C59.8205 47.4735 49.4391 46.4455 49.4391 46.4455L48.0538 36.5961L47.8418 35.0868C47.8418 35.0868 54.1578 32.2854 61.6925 31.1028C69.2125 29.9201 73.6711 31.1028 73.6711 31.1028C75.1018 31.1028 76.3658 32.1295 77.1725 33.7481C77.7658 34.9148 78.1165 36.3788 78.1165 37.9495Z" fill="#090EDA"/>
<path d="M78.1165 37.9495C78.1165 40.7041 77.0498 43.0694 75.5285 44.1588L75.4978 44.1748C74.9498 44.5628 74.3258 44.7974 73.6711 44.7974L73.4885 44.7654C71.7991 45.2174 69.1511 45.8708 65.8018 46.4455C59.8205 47.4735 49.4391 46.4455 49.4391 46.4455L48.0538 36.5961L47.8418 35.0868C47.8418 35.0868 54.1578 32.2854 61.6925 31.1028C69.2125 29.9201 73.6711 31.1028 73.6711 31.1028C75.1018 31.1028 76.3658 32.1295 77.1725 33.7481C77.7658 34.9148 78.1165 36.3788 78.1165 37.9495Z" fill="#27AACD"/>
<path d="M34.5984 28.099C31.9504 29.531 19.6358 32.0684 16.9113 31.787C16.3483 31.7257 15.8311 31.4764 15.3587 31.119L15.176 30.963C13.441 29.4843 12.2994 26.403 11.5227 25.0963C10.5337 23.4003 7.70249 19.4937 3.59262 18.9337C-0.501647 18.3737 -0.501651 16.4123 0.685816 15.2923C1.02022 14.9817 2.43635 14.3737 4.49102 13.783L4.50608 13.767C5.38888 13.519 6.40875 13.2537 7.48941 13.0043C12.9082 11.775 20.2757 11.091 24.6583 13.8297C31.9503 18.3737 36.5917 23.9443 36.5917 23.9443C38.4183 25.0803 37.2464 26.667 34.5984 28.099Z" fill="#090EDA"/>
<path d="M34.5984 28.099C31.9504 29.531 19.6358 32.0684 16.9113 31.787C16.3483 31.7257 15.8311 31.4764 15.3587 31.119L15.176 30.963C13.441 29.4843 12.2994 26.403 11.5227 25.0963C10.5337 23.4003 7.70249 19.4937 3.59262 18.9337C-0.501647 18.3737 -0.501651 16.4123 0.685816 15.2923C1.02022 14.9817 2.43635 14.3737 4.49102 13.783L4.50608 13.767C5.38888 13.519 6.40875 13.2537 7.48941 13.0043C12.9082 11.775 20.2757 11.091 24.6583 13.8297C31.9503 18.3737 36.5917 23.9443 36.5917 23.9443C38.4183 25.0803 37.2464 26.667 34.5984 28.099Z" fill="#27AACD"/>
<path d="M15.3589 31.1191L15.2657 31.0391C15.2975 31.0658 15.3292 31.0911 15.3615 31.1165C15.3605 31.1178 15.36 31.1178 15.3589 31.1191ZM15.1761 30.9631C13.4412 29.4845 12.2996 26.4031 11.5229 25.0965C10.5339 23.4005 7.70267 19.4938 3.59281 18.9338C0.92974 18.5698 -0.000932632 17.6125 7.01197e-07 16.6805C0.000534035 16.1791 0.270937 15.6844 0.686003 15.2924C1.0204 14.9818 2.43654 14.3738 4.4912 13.7831C2.23854 15.3538 2.66414 17.0205 4.94747 17.3471C8.54014 17.8765 13.35 22.6058 15.4048 26.1231C16.5792 28.1391 16.6281 29.7991 15.7417 30.7791C15.5475 30.8365 15.3589 30.8978 15.1761 30.9631Z" fill="#090EDA"/>
<path d="M15.3589 31.1191L15.2657 31.0391C15.2975 31.0658 15.3292 31.0911 15.3615 31.1165C15.3605 31.1178 15.36 31.1178 15.3589 31.1191ZM15.1761 30.9631C13.4412 29.4845 12.2996 26.4031 11.5229 25.0965C10.5339 23.4005 7.70267 19.4938 3.59281 18.9338C0.92974 18.5698 -0.000932632 17.6125 7.01197e-07 16.6805C0.000534035 16.1791 0.270937 15.6844 0.686003 15.2924C1.0204 14.9818 2.43654 14.3738 4.4912 13.7831C2.23854 15.3538 2.66414 17.0205 4.94747 17.3471C8.54014 17.8765 13.35 22.6058 15.4048 26.1231C16.5792 28.1391 16.6281 29.7991 15.7417 30.7791C15.5475 30.8365 15.3589 30.8978 15.1761 30.9631Z" fill="#27AACD"/>
<path d="M53.2993 40.4967C53.2993 43.7807 51.5726 46.4434 49.4419 46.4434C47.3126 46.4434 45.5859 43.7807 45.5859 40.4967C45.5859 37.2127 47.3126 34.55 49.4419 34.55C51.5726 34.55 53.2993 37.2127 53.2993 40.4967Z" fill="#0F0C17"/>
<path d="M53.2993 40.4967C53.2993 43.7807 51.5726 46.4434 49.4419 46.4434C47.3126 46.4434 45.5859 43.7807 45.5859 40.4967C45.5859 37.2127 47.3126 34.55 49.4419 34.55C51.5726 34.55 53.2993 37.2127 53.2993 40.4967Z" fill="#090EDA"/>
<path d="M53.2993 40.4967C53.2993 43.7807 51.5726 46.4434 49.4419 46.4434C47.3126 46.4434 45.5859 43.7807 45.5859 40.4967C45.5859 37.2127 47.3126 34.55 49.4419 34.55C51.5726 34.55 53.2993 37.2127 53.2993 40.4967Z" fill="#27AACD"/>
<path d="M49.4437 45.1484C47.7784 45.1484 46.4277 43.0658 46.4277 40.4964C46.4277 37.9271 47.7784 35.8444 49.4437 35.8444C51.1104 35.8444 52.4611 37.9271 52.4611 40.4964C52.4611 43.0658 51.1104 45.1484 49.4437 45.1484Z" fill="#25B270"/>
<path d="M16.9111 31.7873C16.4143 31.7393 15.9539 31.5406 15.5304 31.2433C15.9554 31.5339 16.4159 31.7326 16.9111 31.7873ZM15.2654 31.0393C15.2351 31.0153 15.2054 30.9899 15.1758 30.9632L15.2654 31.0393Z" fill="#4E8EF7"/>
<path d="M17.4085 31.8086C17.2189 31.8086 17.0533 31.8019 16.9121 31.7873C16.4169 31.7326 15.9564 31.5339 15.5314 31.2433C15.4741 31.2019 15.4178 31.1606 15.3621 31.1166C15.5038 31.0153 15.6304 30.9033 15.7424 30.7793C16.4716 30.5646 17.2798 30.4112 18.1449 30.3246C23.8072 29.7966 28.0992 28.5819 26.0445 22.6059C24.1845 17.2379 16.1992 13.0019 7.85117 13.0019C7.73091 13.0019 7.61117 13.0033 7.49023 13.0046C10.1517 12.4019 13.283 11.9286 16.2997 11.9286C19.4262 11.9286 22.4285 12.4366 24.6592 13.8299C31.9512 18.3739 36.5925 23.9446 36.5925 23.9446C37.1992 24.3219 37.4752 24.7486 37.4765 25.2033C37.4765 25.2566 37.4725 25.3113 37.4658 25.3659C37.3458 26.2379 36.2645 27.1993 34.5992 28.0993C32.0872 29.4566 20.8818 31.8086 17.4085 31.8086Z" fill="#4E8EF7"/>
<path d="M15.3611 31.1152C15.3288 31.0899 15.2971 31.0646 15.2654 31.0379L15.1758 30.9619C15.3586 30.8965 15.5471 30.8352 15.7414 30.7779C15.6294 30.9019 15.5028 31.0139 15.3611 31.1152Z" fill="#090EDA"/>
<path d="M15.3611 31.1152C15.3288 31.0899 15.2971 31.0646 15.2654 31.0379L15.1758 30.9619C15.3586 30.8965 15.5471 30.8352 15.7414 30.7779C15.6294 30.9019 15.5028 31.0139 15.3611 31.1152Z" fill="#27AACD"/>
<path d="M58.9021 46.9023C54.0541 46.9023 49.4395 46.445 49.4395 46.445C51.5715 46.445 53.3061 43.785 53.3061 40.501C53.3061 39.661 53.1848 38.8357 52.9861 38.105C55.8474 39.2157 59.2315 40.5157 62.9781 40.5157C63.7968 40.5157 64.6315 40.4544 65.4835 40.3144C71.0235 39.413 75.2848 36.7504 77.1728 33.7477C77.7661 34.9144 78.1168 36.3784 78.1168 37.949C78.1168 40.7037 77.0501 43.069 75.5288 44.1583L75.4981 44.1743C74.9501 44.5623 74.3261 44.797 73.6714 44.797L73.4888 44.765C72.8795 44.9277 72.1461 45.117 71.3008 45.3184C70.9834 45.3944 70.6488 45.473 70.3008 45.5517C69.0008 45.845 67.4914 46.1557 65.8021 46.445C63.8088 46.7877 61.3261 46.9023 58.9021 46.9023Z" fill="#4E8EF7"/>
<path d="M128.76 17.3137C128.937 19.043 128.179 20.5403 127.067 20.6603C125.953 20.7803 124.907 19.4763 124.729 17.747C124.551 16.019 125.309 14.5203 126.423 14.4003C127.535 14.2803 128.581 15.5857 128.76 17.3137Z" fill="white"/>
<path d="M128.761 17.3127L128.594 17.33C128.612 17.494 128.62 17.6553 128.62 17.8127C128.622 19.2793 127.916 20.4153 127.049 20.494L126.925 20.5007C126.009 20.518 125.057 19.3393 124.896 17.73C124.878 17.566 124.87 17.4033 124.87 17.2447C124.869 15.778 125.574 14.6433 126.441 14.5646L126.565 14.558C127.481 14.5406 128.434 15.7206 128.594 17.33L128.761 17.3127L128.926 17.2953C128.746 15.5953 127.766 14.2433 126.565 14.2246L126.405 14.234C125.264 14.3713 124.54 15.694 124.537 17.2447C124.537 17.4153 124.546 17.5886 124.564 17.7633C124.744 19.4633 125.722 20.8167 126.925 20.834L127.085 20.8246C128.226 20.6873 128.95 19.3633 128.953 17.8127C128.953 17.6433 128.944 17.4713 128.926 17.2953L128.761 17.3127Z" fill="#D9D9D9"/>
<path d="M128.42 17.3517C128.568 18.7891 127.938 20.0344 127.012 20.1344C126.087 20.2331 125.216 19.1491 125.068 17.7117C124.92 16.2744 125.551 15.0277 126.476 14.9291C127.403 14.8291 128.272 15.9131 128.42 17.3517Z" fill="#090EDA"/>
<path d="M128.42 17.3517C128.568 18.7891 127.938 20.0344 127.012 20.1344C126.087 20.2331 125.216 19.1491 125.068 17.7117C124.92 16.2744 125.551 15.0277 126.476 14.9291C127.403 14.8291 128.272 15.9131 128.42 17.3517Z" fill="#27AACD"/>
<path d="M123.131 18.1808C123.308 19.9102 122.551 21.4088 121.437 21.5275C120.324 21.6475 119.277 20.3435 119.1 18.6142C118.923 16.8862 119.68 15.3875 120.793 15.2688C121.907 15.1488 122.953 16.4528 123.131 18.1808Z" fill="white"/>
<path d="M123.131 18.1818L122.966 18.1991C122.982 18.3631 122.99 18.5245 122.99 18.6818C122.992 20.1498 122.286 21.2858 121.42 21.3631L121.295 21.3698C120.38 21.3871 119.427 20.2085 119.266 18.5991C119.25 18.4351 119.242 18.2738 119.242 18.1151C119.239 16.6485 119.944 15.5125 120.811 15.4351L120.936 15.4285C121.851 15.4111 122.804 16.5898 122.966 18.1991L123.131 18.1818L123.296 18.1645C123.118 16.4645 122.138 15.1125 120.936 15.0951L120.776 15.1031C119.634 15.2418 118.91 16.5645 118.908 18.1151C118.908 18.2845 118.916 18.4578 118.935 18.6325C119.114 20.3325 120.094 21.6858 121.295 21.7031L121.455 21.6951C122.598 21.5565 123.322 20.2338 123.323 18.6818C123.323 18.5125 123.315 18.3405 123.296 18.1645L123.131 18.1818Z" fill="#D9D9D9"/>
<path d="M122.792 18.2188C122.939 19.6561 122.31 20.9014 121.383 21.0014C120.458 21.1014 119.587 20.0161 119.439 18.5788C119.292 17.1414 119.923 15.8947 120.848 15.7961C121.774 15.6961 122.644 16.7814 122.792 18.2188Z" fill="#090EDA"/>
<path d="M122.792 18.2188C122.939 19.6561 122.31 20.9014 121.383 21.0014C120.458 21.1014 119.587 20.0161 119.439 18.5788C119.292 17.1414 119.923 15.8947 120.848 15.7961C121.774 15.6961 122.644 16.7814 122.792 18.2188Z" fill="#27AACD"/>
<path d="M117.503 19.0502C117.68 20.7782 116.922 22.2768 115.808 22.3968C114.696 22.5155 113.65 21.2115 113.471 19.4835C113.294 17.7542 114.052 16.2555 115.164 16.1368C116.278 16.0168 117.324 17.3208 117.503 19.0502Z" fill="white"/>
<path d="M117.503 19.0503L117.337 19.0663C117.354 19.2303 117.362 19.3917 117.362 19.549C117.365 21.0157 116.658 22.153 115.791 22.2303L115.667 22.237C114.753 22.2556 113.798 21.0756 113.638 19.4663C113.621 19.3023 113.613 19.141 113.613 18.9837C113.61 17.517 114.317 16.3796 115.183 16.3023L115.307 16.2956C116.223 16.2783 117.175 17.457 117.337 19.0663L117.503 19.0503L117.669 19.033C117.489 17.333 116.51 15.9796 115.307 15.9623L115.147 15.9716C114.006 16.109 113.282 17.433 113.279 18.9837C113.279 19.153 113.289 19.325 113.306 19.501C113.485 21.201 114.466 22.553 115.667 22.5703L115.827 22.5623C116.969 22.4236 117.693 21.101 117.695 19.549C117.695 19.3797 117.687 19.2076 117.669 19.033L117.503 19.0503Z" fill="#D9D9D9"/>
<path d="M117.163 19.086C117.311 20.5233 116.68 21.7699 115.755 21.8686C114.828 21.9686 113.959 20.8833 113.811 19.446C113.663 18.0086 114.293 16.7633 115.219 16.6633C116.144 16.5633 117.015 17.6486 117.163 19.086Z" fill="#090EDA"/>
<path d="M117.163 19.086C117.311 20.5233 116.68 21.7699 115.755 21.8686C114.828 21.9686 113.959 20.8833 113.811 19.446C113.663 18.0086 114.293 16.7633 115.219 16.6633C116.144 16.5633 117.015 17.6486 117.163 19.086Z" fill="#27AACD"/>
<path d="M111.873 19.9193C112.05 21.6473 111.293 23.1459 110.18 23.2659C109.066 23.3846 108.02 22.0806 107.842 20.3526C107.664 18.6246 108.422 17.1259 109.536 17.0059C110.649 16.8859 111.696 18.1913 111.873 19.9193Z" fill="white"/>
<path d="M111.873 19.9195L111.708 19.9368C111.724 20.0995 111.732 20.2608 111.732 20.4195C111.734 21.8861 111.028 23.0221 110.162 23.0994L110.037 23.1061C109.122 23.1248 108.169 21.9448 108.009 20.3354C107.992 20.1714 107.984 20.0101 107.984 19.8515C107.981 18.3848 108.688 17.2488 109.554 17.1715L109.678 17.1648C110.593 17.1474 111.546 18.3275 111.708 19.9368L111.873 19.9195L112.038 19.9021C111.86 18.2021 110.88 16.8488 109.678 16.8314L109.518 16.8408C108.377 16.9781 107.652 18.3008 107.65 19.8515C107.65 20.0208 107.658 20.1941 107.677 20.3701C107.856 22.0701 108.836 23.4221 110.037 23.4395L110.197 23.4314C111.338 23.2941 112.064 21.9701 112.065 20.4195C112.065 20.2501 112.057 20.0768 112.038 19.9021L111.873 19.9195Z" fill="#D9D9D9"/>
<path d="M111.534 19.9539C111.684 21.3913 111.052 22.6379 110.126 22.7379C109.201 22.8366 108.33 21.7526 108.184 20.3152C108.036 18.8779 108.665 17.6312 109.592 17.5312C110.517 17.4326 111.386 18.5166 111.534 19.9539Z" fill="#090EDA"/>
<path d="M111.534 19.9539C111.684 21.3913 111.052 22.6379 110.126 22.7379C109.201 22.8366 108.33 21.7526 108.184 20.3152C108.036 18.8779 108.665 17.6312 109.592 17.5312C110.517 17.4326 111.386 18.5166 111.534 19.9539Z" fill="#27AACD"/>
<path d="M106.244 20.7863C106.423 22.5157 105.664 24.013 104.551 24.133C103.437 24.253 102.392 22.949 102.213 21.2197C102.036 19.4917 102.795 17.993 103.908 17.873C105.02 17.753 106.067 19.0583 106.244 20.7863Z" fill="white"/>
<path d="M106.244 20.7873L106.079 20.8046C106.096 20.9686 106.104 21.1299 106.104 21.2873C106.105 22.7539 105.4 23.8899 104.533 23.9686L104.409 23.9753C103.493 23.9926 102.541 22.8139 102.38 21.2033C102.363 21.0393 102.355 20.8779 102.355 20.7206C102.352 19.2539 103.059 18.1179 103.925 18.0393L104.049 18.0326C104.965 18.0153 105.917 19.1953 106.079 20.8046L106.244 20.7873L106.411 20.7699C106.231 19.0699 105.252 17.7179 104.049 17.6993L103.889 17.7086C102.748 17.8473 102.024 19.1699 102.021 20.7206C102.021 20.8899 102.031 21.0633 102.048 21.2379C102.228 22.9379 103.207 24.2899 104.409 24.3086L104.569 24.2993C105.711 24.1619 106.435 22.8379 106.437 21.2873C106.437 21.1179 106.428 20.9459 106.411 20.7699L106.244 20.7873Z" fill="#D9D9D9"/>
<path d="M105.905 20.8244C106.053 22.2617 105.422 23.507 104.497 23.607C103.571 23.7057 102.701 22.6217 102.553 21.1844C102.405 19.7457 103.035 18.5004 103.961 18.4017C104.886 18.3017 105.757 19.3857 105.905 20.8244Z" fill="#090EDA"/>
<path d="M105.905 20.8244C106.053 22.2617 105.422 23.507 104.497 23.607C103.571 23.7057 102.701 22.6217 102.553 21.1844C102.405 19.7457 103.035 18.5004 103.961 18.4017C104.886 18.3017 105.757 19.3857 105.905 20.8244Z" fill="#27AACD"/>
<path d="M100.617 21.6555C100.796 23.3848 100.037 24.8834 98.9236 25.0021C97.8103 25.1221 96.7636 23.8181 96.5863 22.0888C96.409 20.3608 97.1663 18.8621 98.2796 18.7434C99.393 18.6234 100.438 19.9275 100.617 21.6555Z" fill="white"/>
<path d="M100.617 21.6545L100.45 21.6718C100.467 21.8358 100.475 21.9971 100.475 22.1558C100.478 23.6225 99.7712 24.7584 98.9046 24.8358L98.7806 24.8424C97.8659 24.8598 96.9126 23.6811 96.7512 22.0718C96.7352 21.9078 96.7259 21.7465 96.7259 21.5878C96.7246 20.1211 97.4312 18.9851 98.2966 18.9078L98.4206 18.9011C99.3366 18.8838 100.29 20.0624 100.45 21.6718L100.617 21.6545L100.782 21.6371C100.603 19.9371 99.6232 18.5851 98.4206 18.5678L98.2606 18.5758C97.1192 18.7144 96.3952 20.0371 96.3926 21.5878C96.3926 21.7571 96.4019 21.9304 96.4192 22.1051C96.5992 23.8051 97.5792 25.1584 98.7806 25.1758L98.9406 25.1678C100.082 25.0291 100.807 23.7065 100.809 22.1558C100.809 21.9865 100.801 21.8131 100.782 21.6371L100.617 21.6545Z" fill="#D9D9D9"/>
<path d="M100.277 21.6901C100.425 23.1287 99.7955 24.3741 98.8688 24.4741C97.9435 24.5741 97.0741 23.4888 96.9261 22.0514C96.7768 20.6141 97.4088 19.3674 98.3341 19.2687C99.2595 19.1687 100.13 20.2541 100.277 21.6901Z" fill="#090EDA"/>
<path d="M100.277 21.6901C100.425 23.1287 99.7955 24.3741 98.8688 24.4741C97.9435 24.5741 97.0741 23.4888 96.9261 22.0514C96.7768 20.6141 97.4088 19.3674 98.3341 19.2687C99.2595 19.1687 100.13 20.2541 100.277 21.6901Z" fill="#27AACD"/>
<path d="M94.9874 22.5247C95.1647 24.2527 94.4061 25.7514 93.2941 25.8714C92.1807 25.9901 91.1341 24.6861 90.9554 22.9581C90.7781 21.2287 91.5367 19.7301 92.6501 19.6101C93.7621 19.4914 94.8087 20.7954 94.9874 22.5247Z" fill="white"/>
<path d="M94.9877 22.5249L94.821 22.5409C94.8383 22.7049 94.8463 22.8663 94.8463 23.0236C94.849 24.4903 94.1423 25.6276 93.2757 25.7049L93.1517 25.7116C92.2357 25.7303 91.2837 24.5503 91.121 22.9409C91.105 22.7769 91.097 22.6156 91.097 22.4582C91.0943 20.9916 91.801 19.8543 92.6677 19.7769L92.7917 19.7702C93.7063 19.7529 94.6597 20.9316 94.821 22.5409L94.9877 22.5249L95.153 22.5076C94.973 20.8063 93.993 19.4542 92.7917 19.4369L92.6317 19.4449C91.4903 19.5836 90.765 20.9062 90.7637 22.4582C90.7637 22.6276 90.7717 22.7996 90.7903 22.9743C90.9703 24.6756 91.9503 26.0276 93.1517 26.0449L93.3117 26.0369C94.453 25.8982 95.177 24.5756 95.1797 23.0236C95.1797 22.8543 95.1703 22.6823 95.153 22.5076L94.9877 22.5249Z" fill="#D9D9D9"/>
<path d="M94.6489 22.5605C94.7969 23.9979 94.1663 25.2446 93.2409 25.3432C92.3156 25.4432 91.4449 24.3579 91.2969 22.9206C91.1489 21.4832 91.7796 20.2379 92.7049 20.1379C93.6316 20.0379 94.5009 21.1232 94.6489 22.5605Z" fill="#090EDA"/>
<path d="M94.6489 22.5605C94.7969 23.9979 94.1663 25.2446 93.2409 25.3432C92.3156 25.4432 91.4449 24.3579 91.2969 22.9206C91.1489 21.4832 91.7796 20.2379 92.7049 20.1379C93.6316 20.0379 94.5009 21.1232 94.6489 22.5605Z" fill="#27AACD"/>
<path d="M89.3591 23.3919C89.5365 25.1199 88.7792 26.6186 87.6658 26.7386C86.5525 26.8573 85.5058 25.5532 85.3285 23.8252C85.1512 22.0959 85.9085 20.5986 87.0218 20.4786C88.1351 20.3586 89.1818 21.6626 89.3591 23.3919Z" fill="white"/>
<path d="M89.3594 23.3921L89.1941 23.4094C89.2101 23.5721 89.2181 23.7334 89.2181 23.8921C89.2207 25.3588 88.5141 26.4948 87.6474 26.5721L87.5234 26.5788C86.6074 26.5974 85.6554 25.4174 85.4941 23.8081C85.4781 23.6441 85.4701 23.4828 85.4701 23.3254C85.4674 21.8588 86.1727 20.7214 87.0394 20.6441L87.1647 20.6374C88.0794 20.6201 89.0327 21.8001 89.1941 23.4094L89.3594 23.3921L89.5247 23.3748C89.3461 21.6748 88.3661 20.3214 87.1647 20.3041L87.0047 20.3134C85.8621 20.4508 85.1381 21.7734 85.1367 23.3254C85.1367 23.4948 85.1447 23.6681 85.1634 23.8428C85.3421 25.5428 86.3221 26.8948 87.5234 26.9121L87.6834 26.9041C88.8261 26.7654 89.55 25.4428 89.5514 23.8921C89.5514 23.7228 89.5434 23.5494 89.5247 23.3748L89.3594 23.3921Z" fill="#D9D9D9"/>
<path d="M89.0181 23.4285C89.1661 24.8658 88.5354 26.1125 87.6101 26.2125C86.6847 26.3112 85.8141 25.2259 85.6661 23.7899C85.5181 22.3525 86.1487 21.1058 87.0741 21.0058C88.0007 20.9072 88.8714 21.9912 89.0181 23.4285Z" fill="#090EDA"/>
<path d="M89.0181 23.4285C89.1661 24.8658 88.5354 26.1125 87.6101 26.2125C86.6847 26.3112 85.8141 25.2259 85.6661 23.7899C85.5181 22.3525 86.1487 21.1058 87.0741 21.0058C88.0007 20.9072 88.8714 21.9912 89.0181 23.4285Z" fill="#27AACD"/>
<path d="M83.7302 24.2609C83.9089 25.9902 83.1502 27.4876 82.0369 27.6076C80.9249 27.7276 79.8782 26.4222 79.6995 24.6942C79.5222 22.9662 80.2809 21.4676 81.3929 21.3476C82.5062 21.2276 83.5529 22.5316 83.7302 24.2609Z" fill="white"/>
<path d="M83.7305 24.2599L83.5652 24.2772C83.5825 24.4412 83.5905 24.6026 83.5905 24.7612C83.5918 26.2279 82.8865 27.3626 82.0198 27.4412L81.8958 27.4479C80.9798 27.4652 80.0265 26.2852 79.8665 24.6759C79.8492 24.5119 79.8411 24.3506 79.8411 24.1932C79.8385 22.7266 80.5451 21.5906 81.4118 21.5119L81.5358 21.5052C82.4518 21.4879 83.4038 22.6666 83.5652 24.2772L83.7305 24.2599L83.8972 24.2426C83.7172 22.5426 82.7371 21.1906 81.5358 21.1719L81.3758 21.1812C80.2345 21.3199 79.5105 22.6426 79.5078 24.1932C79.5078 24.3626 79.5158 24.5359 79.5345 24.7106C79.7131 26.4106 80.6932 27.7626 81.8958 27.7812L82.0558 27.7719C83.1971 27.6346 83.9211 26.3119 83.9238 24.7612C83.9238 24.5919 83.9145 24.4186 83.8972 24.2426L83.7305 24.2599Z" fill="#D9D9D9"/>
<path d="M83.3911 24.2982C83.5391 25.7355 82.9085 26.9809 81.9831 27.0795C81.0565 27.1795 80.1871 26.0955 80.0391 24.6582C79.8911 23.2195 80.5218 21.9742 81.4471 21.8755C82.3725 21.7755 83.2431 22.8595 83.3911 24.2982Z" fill="#090EDA"/>
<path d="M83.3911 24.2982C83.5391 25.7355 82.9085 26.9809 81.9831 27.0795C81.0565 27.1795 80.1871 26.0955 80.0391 24.6582C79.8911 23.2195 80.5218 21.9742 81.4471 21.8755C82.3725 21.7755 83.2431 22.8595 83.3911 24.2982Z" fill="#27AACD"/>
<path d="M78.1017 25.1281C78.279 26.8574 77.5203 28.3561 76.4083 28.4748C75.295 28.5948 74.2483 27.2907 74.071 25.5614C73.8923 23.8334 74.651 22.3348 75.7643 22.2161C76.8777 22.0961 77.9243 23.4001 78.1017 25.1281Z" fill="white"/>
<path d="M78.1009 25.129L77.9356 25.1464C77.9516 25.3104 77.9596 25.4717 77.9596 25.629C77.9623 27.0957 77.2556 28.2331 76.3903 28.3104L76.265 28.3171C75.3503 28.3344 74.3969 27.1557 74.2356 25.5451C74.2183 25.3824 74.2103 25.221 74.2103 25.0624C74.209 23.5957 74.9143 22.4597 75.781 22.3824L75.9063 22.3757C76.8209 22.3584 77.7743 23.5371 77.9356 25.1464L78.1009 25.129L78.2663 25.1117C78.0876 23.4117 77.1076 22.0597 75.9063 22.0424L75.7463 22.0504C74.6036 22.1891 73.8796 23.5117 73.877 25.0624C73.877 25.2317 73.8863 25.4051 73.9036 25.5797C74.0836 27.2797 75.0636 28.6331 76.265 28.6504L76.425 28.6424C77.5663 28.5037 78.2916 27.1797 78.293 25.629C78.293 25.4597 78.2849 25.2864 78.2663 25.1117L78.1009 25.129Z" fill="#D9D9D9"/>
<path d="M77.7619 25.1647C77.9099 26.6033 77.2792 27.8487 76.3539 27.9487C75.4285 28.0487 74.5579 26.9633 74.4099 25.526C74.2632 24.0887 74.8925 22.842 75.8192 22.7433C76.7445 22.6433 77.6139 23.7273 77.7619 25.1647Z" fill="#090EDA"/>
<path d="M77.7619 25.1647C77.9099 26.6033 77.2792 27.8487 76.3539 27.9487C75.4285 28.0487 74.5579 26.9633 74.4099 25.526C74.2632 24.0887 74.8925 22.842 75.8192 22.7433C76.7445 22.6433 77.6139 23.7273 77.7619 25.1647Z" fill="#27AACD"/>
</svg>
