<svg width="84" height="53" viewBox="0 0 84 53" fill="none" xmlns="http://www.w3.org/2000/svg">
<path d="M23.1081 41.3805C23.1081 47.7621 17.9347 52.9346 11.554 52.9346C5.17276 52.9346 0 47.7621 0 41.3805C0 34.999 5.17276 29.8265 11.554 29.8265C17.9347 29.8265 23.1081 34.999 23.1081 41.3805Z" fill="#A7AAAE"/>
<path d="M42.0002 37.1656C42.0002 44.9262 35.7085 51.2178 27.948 51.2178C20.1872 51.2178 13.8965 44.9262 13.8965 37.1656C13.8965 29.405 20.1872 23.1134 27.948 23.1134C35.7085 23.1134 42.0002 29.405 42.0002 37.1656Z" fill="#A7AAAE"/>
<path d="M84.0006 42.7855C84.0006 48.3906 79.457 52.9346 73.8518 52.9346C68.2467 52.9346 63.7031 48.3906 63.7031 42.7855C63.7031 37.1804 68.2467 32.6364 73.8518 32.6364C79.457 32.6364 84.0006 37.1804 84.0006 42.7855Z" fill="#A7AAAE"/>
<path d="M44.4979 28.1081C44.4979 38.4556 36.1098 46.8447 25.7617 46.8447C15.4141 46.8447 7.02539 38.4556 7.02539 28.1081C7.02539 17.7606 15.4141 9.37143 25.7617 9.37143C36.1098 9.37143 44.4979 17.7606 44.4979 28.1081Z" fill="#A7AAAE"/>
<path d="M68.3545 32.6368C68.3545 43.7422 59.352 52.7451 48.2466 52.7451C37.1412 52.7451 28.1387 43.7422 28.1387 32.6368C28.1387 21.5313 37.1412 12.5297 48.2466 12.5297C59.352 12.5297 68.3545 21.5313 68.3545 32.6368Z" fill="#A7AAAE"/>
<path d="M74.1638 37.1637C74.1638 43.7609 68.8168 49.1084 62.2199 49.1084C55.6235 49.1084 50.2754 43.7609 50.2754 37.1637C50.2754 30.5665 55.6235 25.219 62.2199 25.219C68.8168 25.219 74.1638 30.5665 74.1638 37.1637Z" fill="#A7AAAE"/>
<path d="M77.2088 28.109C77.2088 34.7062 71.8608 40.0537 65.2644 40.0537C58.6675 40.0537 53.3203 34.7062 53.3203 28.109C53.3203 21.513 58.6675 16.1643 65.2644 16.1643C71.8608 16.1643 77.2088 21.513 77.2088 28.109Z" fill="#A7AAAE"/>
<path d="M61.5167 15.3835C61.5167 23.7911 54.7012 30.6064 46.2938 30.6064C37.8863 30.6064 31.0703 23.7911 31.0703 15.3835C31.0703 6.97581 37.8863 0.160467 46.2938 0.160467C54.7012 0.160467 61.5167 6.97581 61.5167 15.3835Z" fill="#A7AAAE"/>
<path d="M11.5547 52.9346H73.0712V38.5693H12.803L11.5547 52.9346Z" fill="#A7AAAE"/>
</svg>
