<svg width="40" height="40" viewBox="0 0 40 40" fill="none" xmlns="http://www.w3.org/2000/svg">
<rect width="40" height="40" rx="20" fill="#1B1530"/>
<g clip-path="url(#clip0_35_285)">
<path d="M19.9975 22.7118C21.4965 22.7118 22.7118 21.4965 22.7118 19.9975C22.7118 18.4984 21.4965 17.2832 19.9975 17.2832C18.4984 17.2832 17.2832 18.4984 17.2832 19.9975C17.2832 21.4965 18.4984 22.7118 19.9975 22.7118Z" fill="white"/>
<path d="M23.3905 11.8555H16.6048C13.9862 11.8555 11.8555 13.9869 11.8555 16.6061V23.3919C11.8555 26.0105 13.9869 28.1412 16.6061 28.1412H23.3919C26.0105 28.1412 28.1412 26.0098 28.1412 23.3905V16.6048C28.1412 13.9862 26.0098 11.8555 23.3905 11.8555ZM19.9983 24.0698C17.7529 24.0698 15.9269 22.2437 15.9269 19.9983C15.9269 17.7529 17.7529 15.9269 19.9983 15.9269C22.2437 15.9269 24.0698 17.7529 24.0698 19.9983C24.0698 22.2437 22.2437 24.0698 19.9983 24.0698ZM24.7483 15.9269C24.3738 15.9269 24.0698 15.6229 24.0698 15.2483C24.0698 14.8738 24.3738 14.5698 24.7483 14.5698C25.1229 14.5698 25.4269 14.8738 25.4269 15.2483C25.4269 15.6229 25.1229 15.9269 24.7483 15.9269Z" fill="white"/>
</g>
<defs>
<clipPath id="clip0_35_285">
<rect width="17.1429" height="17.1429" fill="white" transform="translate(11.4277 11.4277)"/>
</clipPath>
</defs>
</svg>
