<svg width="996" height="873" viewBox="0 0 996 873" fill="none" xmlns="http://www.w3.org/2000/svg">
<path opacity="0.05" d="M995.5 436.295C995.5 676.632 772.826 871.573 498 871.573C223.174 871.573 0.5 676.632 0.5 436.295C0.5 195.958 223.174 1.0166 498 1.0166C772.826 1.0166 995.5 195.958 995.5 436.295Z" stroke="url(#paint0_linear_3_1422)"/>
<path opacity="0.1" d="M918.5 436.296C918.5 639.42 730.301 804.195 498 804.195C265.699 804.195 77.5 639.42 77.5 436.296C77.5 233.171 265.699 68.3965 498 68.3965C730.301 68.3965 918.5 233.171 918.5 436.296Z" stroke="url(#paint1_linear_3_1422)"/>
<path opacity="0.1" d="M825.5 436.295C825.5 594.474 678.938 722.814 498 722.814C317.062 722.814 170.5 594.474 170.5 436.295C170.5 278.116 317.062 149.776 498 149.776C678.938 149.776 825.5 278.116 825.5 436.295Z" stroke="url(#paint2_linear_3_1422)"/>
<g opacity="0.1">
<path d="M728.5 436.295C728.5 547.596 625.366 637.934 498 637.934C370.634 637.934 267.5 547.596 267.5 436.295C267.5 324.994 370.634 234.657 498 234.657C625.366 234.657 728.5 324.994 728.5 436.295Z" stroke="#CAC5DC"/>
<path d="M728.5 436.295C728.5 547.596 625.366 637.934 498 637.934C370.634 637.934 267.5 547.596 267.5 436.295C267.5 324.994 370.634 234.657 498 234.657C625.366 234.657 728.5 324.994 728.5 436.295Z" stroke="#195A9B"/>
<path d="M728.5 436.295C728.5 547.596 625.366 637.934 498 637.934C370.634 637.934 267.5 547.596 267.5 436.295C267.5 324.994 370.634 234.657 498 234.657C625.366 234.657 728.5 324.994 728.5 436.295Z" stroke="#19599A"/>
</g>
<g opacity="0.1">
<path d="M645.5 436.295C645.5 507.483 579.527 565.303 498 565.303C416.473 565.303 350.5 507.483 350.5 436.295C350.5 365.106 416.473 307.286 498 307.286C579.527 307.286 645.5 365.106 645.5 436.295Z" stroke="#CAC5DC"/>
<path d="M645.5 436.295C645.5 507.483 579.527 565.303 498 565.303C416.473 565.303 350.5 507.483 350.5 436.295C350.5 365.106 416.473 307.286 498 307.286C579.527 307.286 645.5 365.106 645.5 436.295Z" stroke="#195A9B"/>
<path d="M645.5 436.295C645.5 507.483 579.527 565.303 498 565.303C416.473 565.303 350.5 507.483 350.5 436.295C350.5 365.106 416.473 307.286 498 307.286C579.527 307.286 645.5 365.106 645.5 436.295Z" stroke="#19599A"/>
</g>
<defs>
<linearGradient id="paint0_linear_3_1422" x1="498" y1="0.516602" x2="498" y2="872.073" gradientUnits="userSpaceOnUse">
<stop stop-color="#CAC5DC"/>
<stop offset="0.803535" stop-color="#195A9B"/>
</linearGradient>
<linearGradient id="paint1_linear_3_1422" x1="498" y1="67.8965" x2="498" y2="525.114" gradientUnits="userSpaceOnUse">
<stop stop-color="#CAC5DC"/>
<stop offset="1" stop-color="#195A9B"/>
</linearGradient>
<linearGradient id="paint2_linear_3_1422" x1="498" y1="149.276" x2="498" y2="723.314" gradientUnits="userSpaceOnUse">
<stop stop-color="#CAC5DC"/>
<stop offset="1" stop-color="#195A9B"/>
</linearGradient>
</defs>
</svg>
