<svg width="42" height="42" viewBox="0 0 42 42" fill="none" xmlns="http://www.w3.org/2000/svg">
<rect width="42" height="42" rx="12" fill="url(#paint0_linear_36_975)"/>
<path opacity="0.4" d="M26.675 10.5783C28.0806 10.9527 29.2142 11.2547 30.0737 11.6115C30.966 11.9819 31.6764 12.4551 32.1315 13.239C32.587 14.0235 32.6443 14.8736 32.5205 15.8291C32.4014 16.7484 32.0975 17.8762 31.721 19.2731L30.5883 23.4764C30.2119 24.8735 29.908 26.0012 29.5489 26.8566C29.1757 27.7457 28.6991 28.4521 27.912 28.904C27.1255 29.3555 26.2737 29.4124 25.3147 29.2895C24.391 29.1711 23.2574 28.8692 21.8519 28.4946L20.7103 28.1904C19.3047 27.8159 18.1712 27.514 17.3116 27.1572C16.4193 26.7868 15.7089 26.3135 15.2538 25.5297C14.7983 24.7452 14.741 23.8951 14.8648 22.9396C14.984 22.0203 15.2879 20.8925 15.6644 19.4955L16.797 15.2923C17.1735 13.8952 17.4773 12.7674 17.8364 11.9121C18.2097 11.023 18.6862 10.3166 19.4733 9.86466C20.2598 9.41316 21.1117 9.35628 22.0707 9.47917C22.9943 9.59753 24.1279 9.89956 25.5335 10.2741L26.675 10.5783Z" fill="white"/>
<path d="M26.3841 15.6164C26.3841 16.5085 25.6608 17.2317 24.7687 17.2317C23.8766 17.2317 23.1533 16.5085 23.1533 15.6164C23.1533 14.7242 23.8766 14.001 24.7687 14.001C25.6608 14.001 26.3841 14.7242 26.3841 15.6164Z" fill="white"/>
<path fill-rule="evenodd" clip-rule="evenodd" d="M14.9951 14.5021C15.1639 15.0725 14.8383 15.6716 14.268 15.8403C12.5581 16.3462 12.0298 16.6916 11.77 17.139C11.604 17.4249 11.5214 17.8017 11.6159 18.5472C11.7145 19.3244 11.9792 20.327 12.3725 21.8033L13.4628 25.8953C13.8561 27.3716 14.1253 28.373 14.4263 29.0955C14.7151 29.7888 14.9733 30.0717 15.2568 30.2344C15.5411 30.3977 15.919 30.479 16.6697 30.3807C17.4507 30.2785 18.4587 30.0092 19.9407 29.6098L20.4497 29.4727C21.0241 29.318 21.6151 29.658 21.7698 30.2323C21.9246 30.8066 21.5845 31.3976 21.0102 31.5524L20.4281 31.7092C19.0376 32.0839 17.8901 32.3931 16.9492 32.5163C15.9617 32.6455 15.0421 32.5947 14.1844 32.1023C13.3258 31.6094 12.8202 30.8412 12.438 29.9237C12.0745 29.0511 11.7698 27.9074 11.4011 26.5235L10.2717 22.2844C9.90289 20.9002 9.59817 19.7566 9.47916 18.8182C9.35402 17.8314 9.41023 16.9137 9.90735 16.0576C10.6461 14.7851 12.0116 14.2618 13.6569 13.775C14.2272 13.6063 14.8264 13.9318 14.9951 14.5021Z" fill="white"/>
<defs>
<linearGradient id="paint0_linear_36_975" x1="-3.9375" y1="-10.0625" x2="42" y2="50.75" gradientUnits="userSpaceOnUse">
<stop offset="0.0550171" stop-color="#009ED1"/>
<stop offset="1" stop-color="#00377D"/>
</linearGradient>
</defs>
</svg>
