<svg width="8" height="7" viewBox="0 0 8 7" fill="none" xmlns="http://www.w3.org/2000/svg">
<path d="M3.80979 0.585409C3.86966 0.401147 4.13034 0.401148 4.19021 0.58541L4.85315 2.62574C4.87993 2.70814 4.95672 2.76393 5.04336 2.76393H7.18869C7.38243 2.76393 7.46299 3.01186 7.30625 3.12574L5.57064 4.38673C5.50054 4.43765 5.47121 4.52793 5.49799 4.61033L6.16093 6.65066C6.2208 6.83492 6.0099 6.98814 5.85316 6.87426L4.11756 5.61327C4.04746 5.56235 3.95254 5.56235 3.88244 5.61327L2.14684 6.87426C1.9901 6.98814 1.7792 6.83492 1.83907 6.65066L2.50201 4.61033C2.52879 4.52793 2.49946 4.43765 2.42936 4.38673L0.693753 3.12574C0.53701 3.01185 0.617566 2.76393 0.811311 2.76393H2.95664C3.04328 2.76393 3.12007 2.70814 3.14685 2.62574L3.80979 0.585409Z" fill="#2E2E2E"/>
</svg>
