<svg width="40" height="40" viewBox="0 0 40 40" fill="none" xmlns="http://www.w3.org/2000/svg">
<rect width="40" height="40" rx="20" fill="#1B1530"/>
<g clip-path="url(#clip0_35_281)">
<path d="M28.5714 14.6959C27.9286 14.9637 27.2857 15.178 26.5357 15.2316C27.2857 14.803 27.8214 14.1066 28.0893 13.303C27.3929 13.7316 26.6429 13.9994 25.8393 14.1602C25.1964 13.4637 24.2857 13.0352 23.3214 13.0352C21.3929 13.0352 19.7857 14.5887 19.7857 16.5709C19.7857 16.8387 19.8393 17.1066 19.8929 17.3744C16.9464 17.2137 14.375 15.8209 12.6071 13.678C12.2857 14.2137 12.125 14.803 12.125 15.4459C12.125 16.678 12.7679 17.7494 13.6786 18.3923C13.0893 18.3923 12.5536 18.2316 12.0714 17.9637V18.0173C12.0714 19.7316 13.3036 21.1244 14.9107 21.4459C14.5893 21.4994 14.3214 21.553 14 21.553C13.7857 21.553 13.5714 21.553 13.3571 21.4994C13.7857 22.8923 15.125 23.9102 16.625 23.9637C15.4464 24.928 13.8929 25.4637 12.2321 25.4637C11.9643 25.4637 11.6429 25.4637 11.375 25.4102C12.9821 26.3744 14.8571 26.9637 16.8393 26.9637C23.3214 26.9637 26.8571 21.6066 26.8571 16.9459C26.8571 16.7852 26.8571 16.6244 26.8571 16.5173C27.5 15.9816 28.0893 15.3923 28.5714 14.6959Z" fill="white"/>
</g>
<defs>
<clipPath id="clip0_35_281">
<rect width="17.1429" height="17.1429" fill="white" transform="translate(11.4277 11.4277)"/>
</clipPath>
</defs>
</svg>
